<svg width="76" height="76" viewBox="0 0 76 76" xmlns="http://www.w3.org/2000/svg">
    <g fill="#1B1A19">
        <path d="M74.733 76H1.267C.57 76 0 75.493 0 74.733V8.867C0 8.233.57 7.6 1.267 7.6h12.78c.697 0 1.267.633 1.267 1.267 0 .76-.57 1.266-1.267 1.266H2.533v63.334h70.934V10.133h-11.4c-.697 0-1.267-.506-1.267-1.266 0-.634.57-1.267 1.267-1.267h12.666C75.43 7.6 76 8.233 76 8.867v65.866c0 .76-.57 1.267-1.267 1.267"/>
        <path d="M15.2 12.667h7.6V2.533h-7.6v10.134zm8.867 2.533H13.933c-.696 0-1.266-.507-1.266-1.267V1.267c0-.634.57-1.267 1.266-1.267h10.134c.696 0 1.266.633 1.266 1.267v12.666c0 .76-.57 1.267-1.266 1.267z"/>
        <path d="M53.2 12.667h7.6V2.533h-7.6v10.134zm8.867 2.533H51.933c-.696 0-1.266-.507-1.266-1.267V1.267c0-.634.57-1.267 1.266-1.267h10.134c.696 0 1.266.633 1.266 1.267v12.666c0 .76-.57 1.267-1.266 1.267z"/>
        <path d="M51.933 10.133H24.067c-.697 0-1.267-.506-1.267-1.266 0-.634.57-1.267 1.267-1.267h27.866c.697 0 1.267.633 1.267 1.267 0 .76-.57 1.266-1.267 1.266"/>
        <path d="M74.733 25.333H1.267C.57 25.333 0 24.827 0 24.067c0-.634.57-1.267 1.267-1.267h73.466c.697 0 1.267.633 1.267 1.267 0 .76-.57 1.266-1.267 1.266"/>
        <path d="M29.137 63.282c-.697 0-1.267-.633-1.267-1.266V39.85L23.702 43.9c-.494.507-1.304.507-1.798 0-.494-.378-.494-1.265 0-1.773l6.333-6.334c.368-.38.912-.38 1.38-.254.482.254.786.634.786 1.14v25.334c0 .633-.57 1.266-1.266 1.266"/>
        <path d="M35.467 63.333H22.8c-.697 0-1.267-.506-1.267-1.266 0-.634.57-1.267 1.267-1.267h12.667c.696 0 1.266.633 1.266 1.267 0 .76-.57 1.266-1.266 1.266"/>
        <path d="M44.384 63.333c-.152 0-.317-.125-.47-.125-.645-.255-.96-1.015-.708-1.648L52.592 38h-12.06v1.647c0 .76-.57 1.266-1.265 1.266-.697 0-1.267-.505-1.267-1.266v-2.914c0-.633.57-1.266 1.267-1.266h15.2c.418 0 .81.254 1.05.633.23.38.28.76.128 1.14L45.562 62.447c-.19.506-.67.886-1.178.886"/>
        <path d="M52.655 50.667h-9.588c-.697 0-1.267-.507-1.267-1.267 0-.633.57-1.267 1.267-1.267h9.588c.697 0 1.267.634 1.267 1.267 0 .76-.57 1.267-1.267 1.267"/>
    </g>
</svg>
