<?xml version="1.0" encoding="UTF-8" standalone="no"?>
<svg width="76px" height="76px" viewBox="0 0 76 76" version="1.1" xmlns="http://www.w3.org/2000/svg" xmlns:xlink="http://www.w3.org/1999/xlink" xmlns:sketch="http://www.bohemiancoding.com/sketch/ns">
    <!-- Generator: Sketch 3.1 (8751) - http://www.bohemiancoding.com/sketch -->
    <title>checklist-icon</title>
    <desc>Created with Sketch.</desc>
    <defs></defs>
    <g id="Page-1" stroke="none" stroke-width="1" fill="none" fill-rule="evenodd" sketch:type="MSPage">
        <g id="checklist-icon" sketch:type="MSLayerGroup" fill="#1B1A19">
            <path d="M2.53333333,2.53333333 L73.4666667,2.53333333 L73.4666667,73.4666667 L2.53333333,73.4666667 L2.53333333,2.53333333 Z M74.7333333,0 L1.26666667,0 C0.57,0 0,0.633333333 0,1.26666667 L0,74.7333333 C0,75.4933333 0.57,76 1.26666667,76 L74.7333333,76 C75.43,76 76,75.4933333 76,74.7333333 L76,1.26666667 C76,0.633333333 75.43,0 74.7333333,0 L74.7333333,0 Z" id="Fill-1002" sketch:type="MSShapeGroup"></path>
            <path d="M16.8878333,29.5146 C17.1285,29.7666667 17.4451667,29.8933333 17.7871667,29.8933333 C18.1165,29.8933333 18.4458333,29.7666667 18.6738333,29.5146 L34.6465,13.5533333 C35.1405,13.0479333 35.1405,12.16 34.6465,11.78 C34.1525,11.2733333 33.3545,11.2733333 32.8605,11.78 L17.7871667,26.8533333 L12.2898333,21.28 C11.7958333,20.7733333 10.9978333,20.7733333 10.5038333,21.28 C10.0098333,21.7866667 10.0098333,22.5479333 10.5038333,23.0533333 L16.8878333,29.5146" id="Fill-1003" sketch:type="MSShapeGroup"></path>
            <path d="M16.8878333,59.9123833 C17.1411667,60.1657167 17.4578333,60.2923833 17.7871667,60.2923833 C18.1038333,60.2923833 18.4331667,60.1657167 18.6738333,59.9123833 L34.6465,43.9523833 C35.1405,43.4457167 35.1405,42.6857167 34.6465,42.17905 C34.1525,41.67365 33.3545,41.67365 32.8605,42.17905 L17.7871667,57.2523833 L12.2898333,51.8057167 C11.7958333,51.29905 10.9978333,51.29905 10.5038333,51.8057167 C10.0098333,52.3123833 10.0098333,53.07365 10.5038333,53.57905 L16.8878333,59.9123833" id="Fill-1004" sketch:type="MSShapeGroup"></path>
            <path d="M39.2666667,27.8666667 L64.8153333,27.8666667 C65.5246667,27.8666667 66.082,27.3587333 66.082,26.5987333 C66.082,25.9666667 65.5246667,25.3333333 64.8153333,25.3333333 L39.2666667,25.3333333 C38.57,25.3333333 38,25.9666667 38,26.5987333 C38,27.3587333 38.57,27.8666667 39.2666667,27.8666667" id="Fill-1005" sketch:type="MSShapeGroup"></path>
            <path d="M39.2666667,55.7333333 L64.8153333,55.7333333 C65.5246667,55.7333333 66.082,55.2266667 66.082,54.4666667 C66.082,53.8333333 65.5246667,53.2 64.8153333,53.2 L39.2666667,53.2 C38.57,53.2 38,53.8333333 38,54.4666667 C38,55.2266667 38.57,55.7333333 39.2666667,55.7333333" id="Fill-1006" sketch:type="MSShapeGroup"></path>
        </g>
    </g>
</svg>