<svg width="76" height="76" viewBox="0 0 76 76" xmlns="http://www.w3.org/2000/svg">
    <desc>
        Created with Sketch.
    </desc>
    <g fill="#1B1A19">
        <path d="M38 73.467C18.444 73.467 2.533 57.633 2.533 38 2.533 18.493 18.443 2.533 38 2.533S73.467 18.493 73.467 38c0 19.633-15.91 35.467-35.467 35.467zM38 0C17.047 0 0 17.1 0 38c0 21.027 17.047 38 38 38s38-16.973 38-38C76 17.1 58.953 0 38 0z"/>
        <path d="M38 37.24V20.268c0-.76-.566-1.268-1.267-1.268-.7 0-1.266.507-1.266 1.268v17.48c0 .38.147.76.402 1.012l18.835 17.48c.244.253.553.38.864.38.338 0 .675-.127.925-.38.477-.505.45-1.267-.062-1.772L38 37.24"/>
    </g>
</svg>
