<?xml version="1.0" encoding="UTF-8" standalone="no"?>
<svg width="35px" height="35px" viewBox="0 0 35 35" version="1.1" xmlns="http://www.w3.org/2000/svg" xmlns:xlink="http://www.w3.org/1999/xlink" xmlns:sketch="http://www.bohemiancoding.com/sketch/ns">
    <!-- Generator: Sketch 3.2.1 (9971) - http://www.bohemiancoding.com/sketch -->
    <title>Oval 18 + delete</title>
    <desc>Created with Sketch.</desc>
    <defs></defs>
    <g id="Page-1" stroke="none" stroke-width="1" fill="none" fill-rule="evenodd" sketch:type="MSPage">
        <g id="Artboard-2" sketch:type="MSArtboardGroup" transform="translate(-1287.000000, -2941.000000)">
            <g id="Oval-18-+-delete" sketch:type="MSLayerGroup" transform="translate(1287.000000, 2941.000000)">
                <circle id="Oval-18" fill="#CBFB99" sketch:type="MSShapeGroup" cx="17.5" cy="17.5" r="17.5"></circle>
                <path d="M23.9930923,21.3367959 L20.1562766,17.4999803 L23.9930923,13.6631647 C24.0451757,13.5937201 24.079898,13.5242755 24.079898,13.4374697 C24.079898,13.3506639 24.0451757,13.2812193 23.9930923,13.2117746 L21.7882254,11.0069077 C21.7187807,10.9548243 21.6493361,10.920102 21.5625303,10.920102 C21.4757245,10.920102 21.4062799,10.9548243 21.3368353,11.0069077 L17.5000197,14.8437234 L13.6632041,11.0069077 C13.5937594,10.9548243 13.5243148,10.920102 13.437509,10.920102 C13.3507032,10.920102 13.2812586,10.9548243 13.211814,11.0069077 L11.0069471,13.2117746 C10.9548636,13.2812193 10.9201413,13.3506639 10.9201413,13.4374697 C10.9201413,13.5242755 10.9548636,13.5937201 11.0069471,13.6631647 L14.8437627,17.4999803 L11.0069471,21.3367959 C10.9548636,21.4062406 10.9201413,21.4756852 10.9201413,21.562491 C10.9201413,21.6492968 10.9548636,21.7187414 11.0069471,21.788186 L13.211814,23.9930529 C13.2812586,24.0451364 13.3507032,24.0798587 13.437509,24.0798587 C13.5243148,24.0798587 13.5937594,24.0451364 13.6632041,23.9930529 L17.5000197,20.1562373 L21.3368353,23.9930529 C21.4062799,24.0451364 21.4757245,24.0798587 21.5625303,24.0798587 C21.6493361,24.0798587 21.7187807,24.0451364 21.7882254,23.9930529 L23.9930923,21.788186 C24.0451757,21.7187414 24.079898,21.6492968 24.079898,21.562491 C24.079898,21.4756852 24.0451757,21.4062406 23.9930923,21.3367959 L23.9930923,21.3367959 Z" id="delete" fill="#171717" sketch:type="MSShapeGroup"></path>
            </g>
        </g>
    </g>
</svg>