<svg width="76" height="76" viewBox="0 0 76 76" xmlns="http://www.w3.org/2000/svg">
    <g fill="#1B1A19">
        <path d="M2.533 2.533h70.934v70.934H2.533V2.533zM74.733 0H1.267C.57 0 0 .633 0 1.267v73.466C0 75.493.57 76 1.267 76h73.466C75.43 76 76 75.493 76 74.733V1.267C76 .633 75.43 0 74.733 0z"/>
        <path d="M50.667 35.973h7.6v2.534h-7.6v-2.534zM49.4 41.04h3.8v5.447c0 .76.57 1.266 1.267 1.266.696 0 1.266-.506 1.266-1.266V41.04h3.8c.697 0 1.267-.507 1.267-1.267v-5.066c0-.634-.57-1.267-1.267-1.267h-3.8V11.4c0-.633-.57-1.267-1.266-1.267-.697 0-1.267.634-1.267 1.267v22.04h-3.8c-.697 0-1.267.633-1.267 1.267v5.066c0 .76.57 1.267 1.267 1.267z"/>
        <path d="M34.2 20.773h7.6v2.534h-7.6v-2.534zm-1.267 5.067h3.8v20.647c0 .76.57 1.266 1.267 1.266s1.267-.506 1.267-1.266V25.84h3.8c.696 0 1.266-.507 1.266-1.267v-5.066c0-.634-.57-1.267-1.266-1.267h-3.8V11.4c0-.633-.57-1.267-1.267-1.267s-1.267.634-1.267 1.267v6.84h-3.8c-.696 0-1.266.633-1.266 1.267v5.066c0 .76.57 1.267 1.266 1.267z"/>
        <path d="M17.733 30.907h7.6v2.533h-7.6v-2.533zm-1.266 5.066h3.8v10.514c0 .76.57 1.266 1.266 1.266.697 0 1.267-.506 1.267-1.266V35.973h3.8c.697 0 1.267-.506 1.267-1.266V29.64c0-.633-.57-1.267-1.267-1.267h-3.8V11.4c0-.633-.57-1.267-1.267-1.267-.696 0-1.266.634-1.266 1.267v16.973h-3.8c-.697 0-1.267.634-1.267 1.267v5.067c0 .76.57 1.266 1.267 1.266z"/>
        <path d="M54.467 55.733c2.09 0 3.8 1.775 3.8 3.8 0 2.155-1.71 3.8-3.8 3.8s-3.8-1.645-3.8-3.8c0-2.025 1.71-3.8 3.8-3.8zm0 10.134c3.496 0 6.333-2.787 6.333-6.334 0-3.42-2.837-6.333-6.333-6.333s-6.334 2.913-6.334 6.333c0 3.547 2.838 6.334 6.334 6.334z"/>
        <path d="M38 55.733c2.09 0 3.8 1.775 3.8 3.8 0 2.155-1.71 3.8-3.8 3.8s-3.8-1.645-3.8-3.8c0-2.025 1.71-3.8 3.8-3.8zm0 10.134c3.496 0 6.333-2.787 6.333-6.334 0-3.42-2.837-6.333-6.333-6.333s-6.333 2.913-6.333 6.333c0 3.547 2.837 6.334 6.333 6.334z"/>
        <path d="M21.533 55.733c2.09 0 3.8 1.775 3.8 3.8 0 2.155-1.71 3.8-3.8 3.8s-3.8-1.645-3.8-3.8c0-2.025 1.71-3.8 3.8-3.8zm0 10.134c3.496 0 6.334-2.787 6.334-6.334 0-3.42-2.838-6.333-6.334-6.333-3.496 0-6.333 2.913-6.333 6.333 0 3.547 2.837 6.334 6.333 6.334z"/>
    </g>
</svg>
