<svg width="76" height="77" viewBox="0 0 76 77" xmlns="http://www.w3.org/2000/svg">
    <g fill="#1B1A19">
        <path d="M31.578 38.328c-8.12 0-14.706-8.03-14.706-17.898 0-.404.025-.81.05-1.216 1.584.595 3.23.888 5.067.888 4.458 0 9.36-2.193 11.97-5.144 2.533 3.673 5.522 5.41 9.347 5.41.912 0 1.862-.1 2.876-.29h.076c0 .11.01.225.01.352 0 9.867-6.585 17.898-14.692 17.898zm0-35.796c7.296 0 13.35 6.512 14.49 15.01-.113.013-.227.025-.367.052-4.8.923-7.776-.635-10.588-5.55l-1.14-2.013-1.077 2.054c-1.52 2.912-6.624 5.483-10.906 5.483-1.75 0-3.28-.33-4.776-.975 1.457-8.03 7.334-14.06 14.364-14.06zM48.805 20.43C48.805 9.158 41.078 0 31.578 0c-9.513 0-17.24 9.158-17.24 20.43 0 7.462 3.408 13.984 8.462 17.556v6.726l-15.605 5.79C2.888 52.046 0 56.15 0 60.722v10.21h35.467V68.4H2.533v-7.677c0-3.51 2.217-6.65 5.536-7.84l17.263-6.41v-7.018c1.938.9 4.04 1.406 6.245 1.406 2.267 0 4.433-.53 6.422-1.492V45.6h2.533v-7.753c4.953-3.585 8.272-10.044 8.272-17.417z"/>
        <path d="M59.977 73.34c-2.673-1.66-13.11-8.754-13.11-18.52 0-4.003 1.925-6.587 4.914-6.587 2.446 0 5.562 1.926 6.993 6.22.178.52.66.874 1.204.874.544 0 1.026-.355 1.203-.874 1.457-4.356 4.66-6.32 7.182-6.32 2.875 0 4.725 2.317 4.725 5.916 0 10.41-10.438 17.617-13.11 19.29zm8.385-27.74c-2.825 0-6.232 1.683-8.385 5.37-1.9-3.27-4.915-5.27-8.196-5.27-3.71 0-7.447 2.813-7.447 9.12 0 12.616 14.415 20.76 15.036 21.103.19.114.39.166.607.166.215 0 .43-.053.62-.167.608-.342 15.023-8.498 15.023-21.874 0-5.842-3.648-8.45-7.258-8.45z"/>
    </g>
</svg>
