<svg width="74" height="76" viewBox="0 0 74 76" xmlns="http://www.w3.org/2000/svg">
    <desc>
        Created with Sketch.
    </desc>
    <g fill="#1B1A19">
        <path d="M17.056 20.43c0-.404.03-.81.052-1.216 1.608.595 3.274.888 5.128.888 4.51 0 9.466-2.193 12.097-5.144 2.56 3.673 5.584 5.41 9.455 5.41.923 0 1.883-.1 2.908-.29h.077c0 .11.012.225.012.352 0 9.867-6.663 17.898-14.86 17.898-8.2 0-14.87-8.03-14.87-17.898zM31.924 2.532c7.38 0 13.504 6.512 14.656 15.01-.115.013-.23.025-.37.052-4.855.923-7.86-.635-10.7-5.55l-1.164-2.013-1.085 2.054c-1.54 2.912-6.692 5.483-11.024 5.483-1.765 0-3.32-.33-4.826-.975 1.464-8.03 7.41-14.06 14.514-14.06zM49.347 20.43C49.347 9.158 41.534 0 31.924 0s-17.43 9.158-17.43 20.43c0 7.462 3.446 13.984 8.56 17.556v6.726l-15.776 5.79C2.925 52.046 0 56.15 0 60.722v10.21h35.86V68.4H2.56v-7.677c0-3.51 2.244-6.65 5.594-7.84l17.46-6.41v-7.018c1.96.9 4.083 1.406 6.31 1.406 2.298 0 4.488-.53 6.497-1.492V45.6h2.562v-7.753c5.01-3.585 8.365-10.044 8.365-17.417z"/>
        <path d="M58.63 64.043c-1.972 0-3.56-1.585-3.56-3.523 0-1.938 1.588-3.52 3.56-3.52 1.96 0 3.56 1.582 3.56 3.52s-1.6 3.523-3.56 3.523zm0-9.576c-3.38 0-6.12 2.71-6.12 6.053 0 3.345 2.74 6.056 6.12 6.056 3.382 0 6.122-2.71 6.122-6.056 0-3.344-2.74-6.053-6.12-6.053z"/>
        <path d="M68.16 56.29c-.487.28-.743.85-.602 1.394.18.785.27 1.558.27 2.293 0 .658-.09 1.394-.308 2.292-.128.545.115 1.1.602 1.394l2.06 1.19-2.01 3.37-2.253-1.24c-.488-.27-1.09-.193-1.5.187-.96.902-2.574 1.776-4.303 2.307-.538.178-.896.658-.896 1.216v2.395h-3.893v-2.395c0-.558-.37-1.038-.896-1.216-1.318-.406-2.548-1.166-3.764-2.306-.436-.39-1.076-.455-1.563-.15l-1.818 1.14-1.934-3.307 2.1-1.19c.488-.28.744-.848.603-1.394-.192-.81-.282-1.57-.282-2.293 0-.797.09-1.558.27-2.293.128-.543-.115-1.115-.615-1.393l-2.138-1.203 1.882-3.304 1.96 1.165c.485.29 1.126.227 1.536-.166 1.216-1.14 2.446-1.9 3.765-2.305.526-.164.897-.66.897-1.202v-2.408h3.894v2.394c0 .558.36 1.053.897 1.217 1.73.544 3.343 1.406 4.303 2.305.397.367 1 .457 1.486.203l2.382-1.267 1.972 3.37-2.1 1.203zm5.084-.405c.09-.328.052-.67-.128-.962l-3.227-5.536c-.347-.582-1.102-.81-1.704-.48l-2.716 1.43c-1.242-.95-2.676-1.582-3.688-1.963V45.6c0-.697-.576-1.267-1.28-1.267h-6.455c-.705 0-1.28.57-1.28 1.267v2.788c-1.09.443-2.127 1.075-3.126 1.91l-2.266-1.354c-.307-.177-.653-.228-1-.152-.332.09-.614.305-.78.608l-3.165 5.535c-.348.608-.134 1.38.478 1.723l2.455 1.38c-.102.635-.153 1.28-.153 1.94 0 .632.05 1.28.166 1.95l-2.41 1.367c-.612.355-.822 1.128-.47 1.736l3.226 5.536c.18.29.474.507.807.595.332.09.69.028.985-.162l2.14-1.33c.998.835 2.022 1.457 3.11 1.9v2.785c0 .697.577 1.268 1.282 1.268H60.5c.706 0 1.282-.57 1.282-1.267v-2.76c1.012-.38 2.433-1.027 3.676-1.963l2.574 1.405c.602.33 1.37.126 1.716-.455l3.304-5.537c.167-.29.218-.644.128-.962-.077-.33-.294-.607-.59-.772l-2.38-1.38c.127-.71.178-1.343.178-1.95 0-.635-.05-1.28-.153-1.94l2.42-1.38c.295-.177.5-.443.59-.773z"/>
    </g>
</svg>
