<?xml version="1.0" encoding="UTF-8" standalone="no"?>
<svg width="76px" height="59px" viewBox="0 0 76 59" version="1.1" xmlns="http://www.w3.org/2000/svg" xmlns:xlink="http://www.w3.org/1999/xlink" xmlns:sketch="http://www.bohemiancoding.com/sketch/ns">
    <!-- Generator: Sketch 3.1 (8751) - http://www.bohemiancoding.com/sketch -->
    <title>developer-icon</title>
    <desc>Created with Sketch.</desc>
    <defs></defs>
    <g id="Page-1" stroke="none" stroke-width="1" fill="none" fill-rule="evenodd" sketch:type="MSPage">
        <g id="developer-icon" sketch:type="MSLayerGroup" fill="#0A0B09">
            <path d="M68.4,56.4347826 L7.6,56.4347826 C4.80066667,56.4347826 2.53333333,54.126087 2.53333333,51.3043478 L2.53333333,15.3913043 L73.4666667,15.3913043 L73.4666667,51.3043478 C73.4666667,54.126087 71.1993333,56.4347826 68.4,56.4347826 L68.4,56.4347826 Z M7.6,2.56521739 L68.4,2.56521739 C71.1993333,2.56521739 73.4666667,4.86108696 73.4666667,7.69565217 L73.4666667,12.826087 L2.53333333,12.826087 L2.53333333,7.69565217 C2.53333333,4.86108696 4.80066667,2.56521739 7.6,2.56521739 L7.6,2.56521739 Z M68.4,0 L7.6,0 C3.40733333,0 0,3.45021739 0,7.69565217 L0,51.3043478 C0,55.5510652 3.40733333,59 7.6,59 L68.4,59 C72.5926667,59 76,55.5510652 76,51.3043478 L76,7.69565217 C76,3.45021739 72.5926667,0 68.4,0 L68.4,0 Z" id="Fill-3798" sketch:type="MSShapeGroup"></path>
            <path d="M10.1333333,10.2608696 C11.5266667,10.2608696 12.6666667,9.10780435 12.6666667,7.69565217 C12.6666667,6.28478261 11.5266667,5.13043478 10.1333333,5.13043478 C8.74,5.13043478 7.6,6.28478261 7.6,7.69565217 C7.6,9.10780435 8.74,10.2608696 10.1333333,10.2608696" id="Fill-3799" sketch:type="MSShapeGroup"></path>
            <path d="M17.7333333,10.2608696 C19.1266667,10.2608696 20.2666667,9.10780435 20.2666667,7.69565217 C20.2666667,6.28478261 19.1266667,5.13043478 17.7333333,5.13043478 C16.34,5.13043478 15.2,6.28478261 15.2,7.69565217 C15.2,9.10780435 16.34,10.2608696 17.7333333,10.2608696" id="Fill-3800" sketch:type="MSShapeGroup"></path>
            <path d="M25.3333333,10.2608696 C26.7266667,10.2608696 27.8666667,9.10780435 27.8666667,7.69565217 C27.8666667,6.28478261 26.7266667,5.13043478 25.3333333,5.13043478 C23.94,5.13043478 22.8,6.28478261 22.8,7.69565217 C22.8,9.10780435 23.94,10.2608696 25.3333333,10.2608696" id="Fill-3801" sketch:type="MSShapeGroup"></path>
            <path d="M17.3691667,26.027337 C16.8751667,25.5271196 16.0645,25.5271196 15.5705,26.027337 C15.0765,26.528837 15.0765,27.3368804 15.5705,27.8486413 L22.2838333,34.6336413 L15.5705,41.4186413 C15.0765,41.9201413 15.0765,42.7281848 15.5705,43.2399457 C15.8238333,43.4836413 16.1405,43.6119022 16.4698333,43.6119022 C16.7991667,43.6119022 17.1158333,43.4836413 17.3691667,43.2399457 L24.9691667,35.5442935 C25.4631667,35.0325326 25.4631667,34.2244891 24.9691667,33.7229891 L17.3691667,26.027337" id="Fill-3802" sketch:type="MSShapeGroup"></path>
            <path d="M49.4,33.3478261 L34.2,33.3478261 C33.5033333,33.3478261 32.9333333,33.925 32.9333333,34.6304348 C32.9333333,35.3358696 33.5033333,35.9130435 34.2,35.9130435 L49.4,35.9130435 C50.0966667,35.9130435 50.6666667,35.3358696 50.6666667,34.6304348 C50.6666667,33.925 50.0966667,33.3478261 49.4,33.3478261" id="Fill-3803" sketch:type="MSShapeGroup"></path>
        </g>
    </g>
</svg>