<svg width="76" height="59" viewBox="0 0 76 59" xmlns="http://www.w3.org/2000/svg">
    <desc>
        Created with Sketch.
    </desc>
    <g fill="#0A0B09">
        <path d="M68.4 56.435H7.6c-2.8 0-5.067-2.31-5.067-5.13V15.39h70.934v35.914c0 2.822-2.268 5.13-5.067 5.13zM7.6 2.565h60.8c2.8 0 5.067 2.296 5.067 5.13v5.13H2.533v-5.13c0-2.834 2.268-5.13 5.067-5.13zM68.4 0H7.6C3.407 0 0 3.45 0 7.696v43.608C0 55.55 3.407 59 7.6 59h60.8c4.193 0 7.6-3.45 7.6-7.696V7.696C76 3.45 72.593 0 68.4 0z"/>
        <path d="M10.133 10.26c1.394 0 2.534-1.152 2.534-2.564 0-1.41-1.14-2.566-2.534-2.566C8.74 5.13 7.6 6.285 7.6 7.696c0 1.412 1.14 2.565 2.533 2.565"/>
        <path d="M17.733 10.26c1.394 0 2.534-1.152 2.534-2.564 0-1.41-1.14-2.566-2.534-2.566-1.393 0-2.533 1.155-2.533 2.566 0 1.412 1.14 2.565 2.533 2.565"/>
        <path d="M25.333 10.26c1.394 0 2.534-1.152 2.534-2.564 0-1.41-1.14-2.566-2.534-2.566-1.393 0-2.533 1.155-2.533 2.566 0 1.412 1.14 2.565 2.533 2.565"/>
        <path d="M17.37 26.027c-.495-.5-1.306-.5-1.8 0-.494.502-.494 1.31 0 1.822l6.714 6.784-6.713 6.785c-.494.5-.494 1.308 0 1.82.254.244.57.372.9.372.33 0 .646-.128.9-.372l7.6-7.696c.493-.51.493-1.32 0-1.82l-7.6-7.697"/>
        <path d="M49.4 33.348H34.2c-.697 0-1.267.577-1.267 1.282 0 .706.57 1.283 1.267 1.283h15.2c.697 0 1.267-.577 1.267-1.283 0-.705-.57-1.282-1.267-1.282"/>
    </g>
</svg>
