<svg width="64" height="77" viewBox="0 0 64 77" xmlns="http://www.w3.org/2000/svg">
    <g fill="#0A0B09">
        <path d="M28.16 5.067c12.698 0 23.04 10.222 23.04 22.8 0 12.566-10.342 22.8-23.04 22.8-12.71 0-23.04-10.234-23.04-22.8 0-12.578 10.33-22.8 23.04-22.8zm0 48.134c14.118 0 25.6-11.362 25.6-25.333 0-13.972-11.482-25.334-25.6-25.334-14.118 0-25.6 11.362-25.6 25.334 0 13.97 11.482 25.334 25.6 25.334z"/>
        <path d="M29.443 67.188c-.422-.013-.857-.05-1.28-.05-.435 0-.857.037-1.28.05v-3.9c.423.01.858.037 1.28.037.423 0 .858-.026 1.28-.038v3.9zM13.277 73.47c4.53-2.495 9.6-3.8 14.886-3.8 5.287 0 10.355 1.305 14.887 3.8H13.277zm40.23-20.52C67.177 39.424 67.46 17.6 54.39 3.704l1.562-1.533c.5-.507.5-1.303 0-1.8-.5-.494-1.318-.494-1.818 0l-5.12 5.068c-.5.495-.5 1.292 0 1.8.256.238.576.367.91.367.332 0 .652-.13.908-.368l1.74-1.736c12.084 12.897 11.79 33.113-.882 45.652-12.672 12.54-33.1 12.833-46.132.874l1.754-1.723c.5-.506.5-1.303 0-1.798-.5-.495-1.318-.495-1.818 0L.374 53.57c-.5.497-.5 1.293 0 1.8.256.24.576.367.91.367.332 0 .652-.127.908-.367l1.55-1.545c5.86 5.396 13.12 8.5 20.58 9.283v4.27c-5.848.66-11.365 2.798-16.127 6.346-.448.33-.627.9-.448 1.406.18.52.666.875 1.216.875h38.4c.55 0 1.037-.356 1.216-.875.166-.507-.014-1.077-.45-1.406-4.76-3.548-10.277-5.687-16.127-6.346v-4.27c7.86-.835 15.488-4.218 21.504-10.157z"/>
    </g>
</svg>
