<svg width="76" height="76" viewBox="0 0 76 76" xmlns="http://www.w3.org/2000/svg">
    <g fill="#1B1A19">
        <path d="M29.133 29.47c0-.14.016-.227.01-.24.236-.1.982-.1 1.485-.1l.432.01.434-.01c.526 0 1.32 0 1.46.048.002 0 .035.076.035.293 0 .698.567 1.266 1.266 1.266.7 0 1.266-.568 1.266-1.265 0-.86-.252-1.544-.75-2.04-.85-.848-2.096-.848-3.298-.823h-.827c-1.203-.013-2.447-.025-3.296.823-.498.496-.75 1.18-.75 2.04 0 .698.567 1.266 1.267 1.266s1.266-.568 1.266-1.265"/>
        <path d="M41.8 30.732c.7 0 1.267-.568 1.267-1.265 0-.14.015-.228.01-.242.234-.1.98-.1 1.484-.1l.435.01.433-.01c.523 0 1.318 0 1.46.05 0 0 .034.075.034.292 0 .697.567 1.265 1.267 1.265.698 0 1.266-.568 1.266-1.265 0-.86-.252-1.545-.75-2.04-.85-.85-2.1-.837-3.3-.824h-.826c-1.204-.013-2.447-.025-3.296.823-.5.496-.75 1.18-.75 2.04 0 .698.566 1.266 1.266 1.266"/>
        <path d="M73.467 73.467h-7.793L62.278 53.02c7.087 1.65 11.19 4.398 11.19 11.314v9.133zM2.533 64.334c0-6.753 4.088-9.565 11.196-11.262l-3.403 20.395H2.533v-9.133zM38 53.642c2.082 0 5.324-1.127 8.437-3.154 1.725.29 3.44.532 5.128.773L46.98 61.536c-1.23 2.71-4.112 4.332-7.713 4.332h-3.8c-3.183 0-5.05-1.256-6.443-4.32l-4.58-10.286c1.695-.24 3.416-.48 5.13-.758 3.11 2.013 6.346 3.14 8.426 3.14zm-14.705-17.24c0-.696-.566-1.266-1.266-1.266-1.842 0-2.328-2.305-2.328-3.533 0-1.217.486-3.522 2.327-3.522.602 0 1.122-.417 1.24-1.013l1.403-6.98c8.04-.1 11.493-1.405 13.342-2.773 1.888 1.42 5.294 2.673 13.33 2.774l1.384 6.98c.117.582.637 1.013 1.24 1.013 1.842 0 2.328 2.306 2.328 3.523 0 1.228-.486 3.533-2.327 3.533-.698 0-1.265.57-1.265 1.267 0 5.066-3.443 9.145-7.178 11.716-.026.012-.05.04-.075.05-2.756 1.875-5.658 2.94-7.452 2.94-1.763 0-4.6-1.026-7.316-2.85-.098-.09-.205-.166-.327-.217-3.69-2.57-7.062-6.623-7.062-11.64zm-2.1-31.286l1.086-1.81 2.638 2.633c.914.924 2.176 1.394 3.47 1.304 1.29-.1 2.474-.747 3.253-1.773l1.57-2.1 1.222 1.633c.837 1.115 2.17 1.785 3.568 1.785 1.397 0 2.732-.67 3.568-1.785L42.79 3.37l1.57 2.1c.776 1.027 1.962 1.674 3.25 1.774 1.285.09 2.558-.38 3.473-1.305l2.636-2.635 1.085 1.81c1.876 3.13 2.74 6.703 2.504 10.362-.35 5.32-.71 8.715-.975 10.78-.393-.254-.817-.47-1.3-.583L53.63 18.58c-.118-.582-.64-1.013-1.243-1.013-9.546 0-12.26-1.607-13.472-2.823-.475-.483-1.317-.483-1.792 0-1.212 1.216-3.927 2.823-13.488 2.823-.603 0-1.123.418-1.242 1.014l-1.426 7.094c-.46.114-.885.304-1.282.557-.276-2.038-.644-5.433-.993-10.753-.238-3.66.628-7.232 2.503-10.36zm.637 46.5l4.882 10.97c1.8 3.965 4.582 5.814 8.753 5.814h3.8c4.623 0 8.37-2.18 10.024-5.814l4.887-10.97c1.938.278 3.76.545 5.44.862l3.49 20.99h-50.21l3.496-20.98c1.68-.315 3.5-.594 5.44-.87zm39.23-1.456c-.04-.014-.082-.025-.125-.025-2.497-.496-5.144-.863-7.833-1.23-1.268-.165-2.564-.342-3.864-.544 3.09-2.723 5.593-6.422 5.952-10.855 2.394-.67 3.64-3.294 3.64-5.902 0-.81-.14-1.634-.385-2.395.192-.988.805-4.636 1.39-13.566.27-4.166-.718-8.257-2.86-11.83L55.057.606c-.2-.33-.545-.556-.93-.596-.386-.05-.776.077-1.05.356L49.29 4.153c-.396.393-.95.597-1.5.558-.558-.037-1.07-.316-1.407-.758L43.805.505C43.565.19 43.19 0 42.792 0c-.4 0-.774.19-1.014.505L39.54 3.482c-.722.977-2.356.977-3.08 0L34.222.505C33.982.19 33.607 0 33.208 0c-.4 0-.774.19-1.013.505l-2.58 3.433c-.336.456-.85.735-1.406.773-.57.04-1.106-.164-1.5-.557L22.923.366c-.275-.28-.662-.405-1.05-.355-.386.04-.73.267-.93.597l-1.92 3.204c-2.143 3.575-3.13 7.666-2.86 11.832.562 8.602 1.187 12.312 1.414 13.465-.258.772-.41 1.62-.41 2.496 0 2.608 1.246 5.232 3.64 5.902.36 4.447 2.865 8.132 5.958 10.868-1.21.177-2.417.342-3.604.506-2.726.367-5.468.748-8.07 1.266-.05 0-.095.014-.14.025C6.74 51.83 0 55.01 0 64.335V76h76V64.334c0-9.45-6.563-12.53-14.938-14.174z"/>
    </g>
</svg>
