<svg width="76" height="76" viewBox="0 0 76 76" xmlns="http://www.w3.org/2000/svg">
    <desc>
        Created with Sketch.
    </desc>
    <g fill="#0A0B09">
        <path d="M60.8 27.867h7.6v45.6h-7.6v-45.6zm-17.733 22.8h7.6v22.8h-7.6v-22.8zm-17.734-7.6h7.6v30.4h-7.6v-30.4zM7.6 60.8h7.6v12.667H7.6V60.8zm67.133 12.667h-3.8V26.6c0-.7-.57-1.267-1.266-1.267H59.533c-.696 0-1.266.568-1.266 1.268v46.867H53.2V49.4c0-.7-.57-1.267-1.267-1.267H41.8c-.697 0-1.267.568-1.267 1.268v24.067h-5.066V41.8c0-.7-.57-1.267-1.267-1.267H24.067c-.697 0-1.267.568-1.267 1.268v31.667h-5.067V59.533c0-.7-.57-1.266-1.266-1.266H6.333c-.696 0-1.266.567-1.266 1.266v13.934h-3.8C.57 73.467 0 74.034 0 74.733 0 75.433.57 76 1.267 76h73.466C75.43 76 76 75.434 76 74.734s-.57-1.266-1.267-1.266z"/>
        <path d="M10.133 34.2c.76 0 1.444.345 1.9.878v.002c.393.446.634 1.02.634 1.652 0 1.397-1.14 2.533-2.534 2.533-1.393 0-2.533-1.136-2.533-2.533 0-1.396 1.14-2.532 2.533-2.532zm19-16.468c1.394 0 2.534 1.138 2.534 2.533 0 1.398-1.14 2.535-2.534 2.535-1.393 0-2.533-1.137-2.533-2.535 0-1.395 1.14-2.533 2.533-2.533zm19 7.6c.608 0 1.166.23 1.61.593v.005c0 .004.012.004.012.005.557.465.912 1.153.912 1.93 0 1.398-1.14 2.535-2.534 2.535-1.393 0-2.533-1.137-2.533-2.535 0-1.395 1.14-2.533 2.533-2.533zm19-22.8c1.394 0 2.534 1.138 2.534 2.533 0 1.398-1.14 2.535-2.534 2.535-1.393 0-2.533-1.137-2.533-2.535 0-1.395 1.14-2.533 2.533-2.533zm-57 39.268c2.8 0 5.067-2.274 5.067-5.068 0-.808-.203-1.562-.545-2.24l11.603-10.06c.823.564 1.81.9 2.875.9 1.672 0 3.142-.822 4.066-2.076l9.93 3.974c-.025.21-.063.418-.063.635 0 2.795 2.267 5.067 5.066 5.067 2.8 0 5.067-2.272 5.067-5.067 0-1.1-.367-2.114-.963-2.945L64.98 9.634c.66.312 1.38.498 2.153.498 2.8 0 5.067-2.272 5.067-5.067C72.2 2.275 69.933 0 67.133 0c-2.8 0-5.066 2.274-5.066 5.065 0 1.102.367 2.117.962 2.947L50.286 23.3c-.66-.31-1.38-.5-2.154-.5-1.672 0-3.14.822-4.066 2.076l-9.93-3.973c.025-.21.063-.418.063-.638 0-2.79-2.267-5.065-5.067-5.065-2.8 0-5.066 2.274-5.066 5.065 0 .81.202 1.562.544 2.244l-11.6 10.057c-.825-.566-1.813-.902-2.877-.902-2.8 0-5.066 2.274-5.066 5.067 0 2.794 2.267 5.068 5.066 5.068z"/>
    </g>
</svg>
