<svg width="77" height="63" viewBox="0 0 77 63" xmlns="http://www.w3.org/2000/svg">
    <desc>
        Created with Sketch.
    </desc>
    <g fill="#1B1A19">
        <path d="M71.307 17.557c-3.212-3.074-7.386-4.75-11.835-4.802C55.392 4.985 47.182 0 38.32 0c-12.1 0-22.215 9.008-23.64 20.75-3.49-.343-6.977.698-9.737 2.914C1.8 26.184 0 29.93 0 33.94c0 10.804 9.51 12.783 12.423 13.14h.162c.664 0 1.24-.488 1.322-1.162.088-.725-.432-1.372-1.164-1.464C8.98 44.004 2.667 42.04 2.667 33.94c0-3.205 1.442-6.213 3.958-8.23 2.523-2.033 5.798-2.81 8.983-2.15l1.512.302.09-1.517c.66-11.054 9.933-19.708 21.11-19.708 8.123 0 15.63 4.724 19.127 12.004l.376.794.877-.04c4.04-.133 7.863 1.292 10.756 4.062 2.912 2.772 4.516 6.504 4.516 10.502 0 9.062-6.58 12.596-10.503 13.902-.7.238-1.074.978-.84 1.676.235.687.99 1.056 1.69.83 4.6-1.528 12.32-5.698 12.32-16.408 0-4.724-1.896-9.13-5.333-12.4"/>
        <path d="M48.188 54.588c-2.314 3.06-5.85 4.8-9.694 4.8-6.682 0-12.116-5.382-12.116-11.99v-.132l2.766 2.73c.26.265.602.395.943.395.34 0 .683-.13.943-.394.52-.515.52-1.344 0-1.86l-5.042-4.985s-.002 0-.004-.014l-.94-.923-.94.923-.004.015-5.042 4.986c-.522.516-.522 1.345 0 1.86.52.516 1.364.516 1.885 0l2.768-2.73v.13c0 8.074 6.632 14.63 14.784 14.63 4.692 0 9.004-2.137 11.826-5.843.443-.594.324-1.412-.265-1.86-.588-.436-1.424-.317-1.867.265"/>
        <path d="M56.31 45.01l-2.77 2.73v-.145c0-8.06-6.63-14.616-14.78-14.616-4.693 0-9.003 2.123-11.826 5.843-.443.58-.323 1.41.265 1.846.587.435 1.425.316 1.866-.264 2.315-3.046 5.847-4.788 9.693-4.788 6.68 0 12.114 5.368 12.114 11.977v.146l-2.767-2.73c-.52-.514-1.365-.514-1.885 0s-.52 1.345 0 1.86l5.043 4.986.942.936.943-.936 5.044-4.985c.52-.515.52-1.346 0-1.86s-1.364-.514-1.885 0"/>
    </g>
</svg>
