<svg width="76" height="77" viewBox="0 0 76 77" xmlns="http://www.w3.org/2000/svg">
    <g fill="#1B1A19">
        <path d="M2.576 32.202v-.063c0-1.213 1.018-2.566 2.164-2.888l9.43-2.5v-3.488c1.056.36 2.19.567 3.362.567 1.07 0 2.1-.18 3.078-.49v3.413l9.687 2.488c1.043.31 1.906 1.635 1.906 2.962H2.576zm6.492-20.288c0-.077.013-.167.013-.243 2.9 1.03 6.867.722 9.843-1.455 1.017 1.108 2.434 1.84 4.07 2.074.374.062.76.088 1.12.088.658 0 1.29-.103 1.87-.27-.104 5.062-3.853 9.146-8.45 9.146-4.665 0-8.465-4.2-8.465-9.34zm8.464-9.338c3.903 0 7.187 2.936 8.153 6.918-.566.244-1.404.385-2.318.256-.812-.13-2.28-.54-3.08-2.02-.192-.363-.54-.608-.952-.67-.4-.054-.8.076-1.095.358-2.59 2.59-6.518 2.68-8.772 1.662 1.095-3.774 4.29-6.504 8.064-6.504zm2.91 32.204H34.78v-2.578c0-2.486-1.623-4.818-3.813-5.45l-7.78-1.995v-2.64c3.207-2.074 5.37-5.875 5.37-10.203C28.558 5.344 23.613 0 17.533 0S6.492 5.344 6.492 11.914c0 4.2 2.035 7.91 5.1 10.022v2.835L4.06 26.767C1.778 27.41 0 29.782 0 32.14v2.64h20.443z"/>
        <path d="M61.663 32.202H43.797v-.063c0-1.213 1.017-2.566 2.164-2.888l9.43-2.5v-3.488c1.056.36 2.19.567 3.362.567 1.07 0 2.1-.18 3.08-.49v3.413l9.685 2.488c1.044.31 1.907 1.635 1.907 2.962h-11.76zM50.29 11.914c0-.077.012-.167.012-.243 2.898 1.03 6.865.722 9.84-1.455 1.02 1.108 2.436 1.84 4.072 2.074.373.062.76.088 1.12.088.657 0 1.288-.103 1.868-.27-.103 5.062-3.85 9.146-8.45 9.146-4.663 0-8.463-4.2-8.463-9.34zm8.462-9.338c3.903 0 7.188 2.936 8.154 6.918-.567.244-1.404.385-2.32.256-.81-.13-2.28-.54-3.078-2.02-.193-.363-.54-.608-.953-.67-.4-.054-.798.076-1.095.358-2.59 2.59-6.518 2.68-8.772 1.662 1.095-3.774 4.29-6.504 8.064-6.504zm13.435 24.177l-7.78-1.996v-2.64c3.207-2.074 5.37-5.875 5.37-10.203C69.778 5.344 64.833 0 58.753 0s-11.04 5.344-11.04 11.914c0 4.2 2.036 7.91 5.102 10.022v2.835l-7.536 1.996c-2.28.644-4.058 3.016-4.058 5.373v2.64H76v-2.578c0-2.486-1.623-4.818-3.813-5.45z"/>
        <path d="M51.81 73.708H21.897v-.336c0-1.21 1.018-2.576 2.19-2.91l9.185-2.615v-3.452c1.12.41 2.318.656 3.58.656 1.25 0 2.46-.244 3.582-.655v3.452l9.184 2.615c1.158.334 2.19 1.7 2.19 2.91v.336zM28.39 53.136c0-.078.013-.154.013-.23 2.9 1.015 6.866.706 9.855-1.47.99 1.08 2.37 1.79 3.954 2.022.36.05.722.09 1.082.09.71 0 1.38-.128 2.01-.31-.052 5.102-3.813 9.237-8.45 9.237-4.663 0-8.463-4.187-8.463-9.34zm8.464-9.34c3.877 0 7.136 2.9 8.14 6.83-.592.27-1.455.424-2.408.28-.786-.102-2.203-.514-2.976-1.957-.193-.36-.54-.605-.94-.67-.412-.052-.812.077-1.108.373-2.576 2.59-6.518 2.68-8.76 1.65 1.083-3.763 4.277-6.506 8.052-6.506zM50.327 67.99L43.01 65.9v-2.883c2.938-2.138 4.87-5.772 4.87-9.88 0-6.57-4.946-11.917-11.026-11.917s-11.04 5.347-11.04 11.916c0 4.11 1.945 7.743 4.882 9.88v2.885l-7.316 2.09c-2.28.655-4.058 3.012-4.058 5.382v2.913h35.063v-2.913c0-2.37-1.79-4.727-4.058-5.383z"/>
    </g>
</svg>
