<?xml version="1.0" encoding="UTF-8" standalone="no"?>
<svg width="76px" height="77px" viewBox="0 0 76 77" version="1.1" xmlns="http://www.w3.org/2000/svg" xmlns:xlink="http://www.w3.org/1999/xlink" xmlns:sketch="http://www.bohemiancoding.com/sketch/ns">
    <!-- Generator: Sketch 3.1 (8751) - http://www.bohemiancoding.com/sketch -->
    <title>membership-icon</title>
    <desc>Created with Sketch.</desc>
    <defs></defs>
    <g id="Page-1" stroke="none" stroke-width="1" fill="none" fill-rule="evenodd" sketch:type="MSPage">
        <g id="membership-icon" sketch:type="MSLayerGroup" fill="#1B1A19">
            <path d="M2.57627119,32.2021017 L2.57627119,32.1389831 C2.57627119,30.9268475 3.59389831,29.5743051 4.74033898,29.2522712 L14.1694915,26.7532881 L14.1694915,23.2637288 C15.2257627,23.6231186 16.359322,23.8305085 17.5315254,23.8305085 C18.600678,23.8305085 19.6311864,23.6488814 20.6101695,23.3397288 L20.6101695,26.7532881 L30.2969492,29.240678 C31.340339,29.5485424 32.2033898,30.875322 32.2033898,32.2021017 L2.57627119,32.2021017 L2.57627119,32.2021017 Z M9.06847458,11.9139661 C9.06847458,11.836678 9.08135593,11.7465085 9.08135593,11.6705085 C11.979661,12.6997288 15.9471186,12.3918644 18.9227119,10.2149153 C19.940339,11.3227119 21.3572881,12.055661 22.9932203,12.2888136 C23.3667797,12.3519322 23.7532203,12.3776949 24.1138983,12.3776949 C24.7708475,12.3776949 25.4020339,12.2746441 25.9816949,12.1071864 C25.8786441,17.1695593 22.1301695,21.2542373 17.5315254,21.2542373 C12.8684746,21.2542373 9.06847458,17.0536271 9.06847458,11.9139661 L9.06847458,11.9139661 Z M17.5315254,2.57627119 C21.4345763,2.57627119 24.719322,5.5119322 25.6854237,9.49355932 C25.1186441,9.73830508 24.2813559,9.87871186 23.3667797,9.74989831 C22.5552542,9.62108475 21.0867797,9.20888136 20.2881356,7.72881356 C20.0949153,7.36684746 19.7471186,7.12210169 19.3349153,7.05898305 C18.9355932,7.00616949 18.5362712,7.13627119 18.24,7.41837288 C15.6508475,10.0088136 11.7220339,10.0976949 9.46779661,9.0800678 C10.5627119,5.30583051 13.7572881,2.57627119 17.5315254,2.57627119 L17.5315254,2.57627119 Z M20.4427119,34.779661 L34.779661,34.779661 L34.779661,32.2021017 C34.779661,29.716 33.1566102,27.3844746 30.9667797,26.7532881 L23.1864407,24.756678 L23.1864407,22.116 C26.3938983,20.0433898 28.5579661,16.2421017 28.5579661,11.9139661 C28.5579661,5.34447458 23.6115254,0 17.5315254,0 C11.4515254,0 6.49220339,5.34447458 6.49220339,11.9139661 C6.49220339,16.1132881 8.52745763,19.8231186 11.5932203,21.935661 L11.5932203,24.7708475 L4.05762712,26.7661695 C1.77762712,27.4102373 0,29.7816949 0,32.1389831 L0,34.779661 L20.4427119,34.779661 L20.4427119,34.779661 Z" id="Fill-1665" sketch:type="MSShapeGroup"></path>
            <path d="M61.6630508,32.2021017 L43.7966102,32.2021017 L43.7966102,32.1389831 C43.7966102,30.9268475 44.8142373,29.5743051 45.960678,29.2522712 L55.3898305,26.7532881 L55.3898305,23.2637288 C56.4461017,23.6231186 57.579661,23.8305085 58.7518644,23.8305085 C59.8210169,23.8305085 60.8515254,23.6488814 61.8305085,23.3397288 L61.8305085,26.7532881 L71.5172881,29.240678 C72.560678,29.5485424 73.4237288,30.875322 73.4237288,32.2021017 L61.6630508,32.2021017 L61.6630508,32.2021017 Z M50.2888136,11.9139661 C50.2888136,11.836678 50.3016949,11.7465085 50.3016949,11.6705085 C53.2,12.6997288 57.1674576,12.3918644 60.1430508,10.2149153 C61.160678,11.3227119 62.5776271,12.055661 64.2135593,12.2888136 C64.5871186,12.3519322 64.9735593,12.3776949 65.3342373,12.3776949 C65.9911864,12.3776949 66.6223729,12.2746441 67.2020339,12.1071864 C67.0989831,17.1695593 63.3505085,21.2542373 58.7518644,21.2542373 C54.0888136,21.2542373 50.2888136,17.0536271 50.2888136,11.9139661 L50.2888136,11.9139661 Z M58.7518644,2.57627119 C62.6549153,2.57627119 65.939661,5.5119322 66.9057627,9.49355932 C66.3389831,9.73830508 65.5016949,9.87871186 64.5871186,9.74989831 C63.7755932,9.62108475 62.3071186,9.20888136 61.5084746,7.72881356 C61.3152542,7.36684746 60.9674576,7.12210169 60.5552542,7.05898305 C60.1559322,7.00616949 59.7566102,7.13627119 59.460339,7.41837288 C56.8711864,10.0088136 52.9423729,10.0976949 50.6881356,9.0800678 C51.7830508,5.30583051 54.9776271,2.57627119 58.7518644,2.57627119 L58.7518644,2.57627119 Z M72.1871186,26.7532881 L64.4067797,24.756678 L64.4067797,22.116 C67.6142373,20.0433898 69.7783051,16.2421017 69.7783051,11.9139661 C69.7783051,5.34447458 64.8318644,0 58.7518644,0 C52.6718644,0 47.7125424,5.34447458 47.7125424,11.9139661 C47.7125424,16.1132881 49.7477966,19.8231186 52.8135593,21.935661 L52.8135593,24.7708475 L45.2779661,26.7661695 C42.9979661,27.4102373 41.220339,29.7816949 41.220339,32.1389831 L41.220339,34.779661 L76,34.779661 L76,32.2021017 C76,29.716 74.3769492,27.3844746 72.1871186,26.7532881 L72.1871186,26.7532881 Z" id="Fill-1666" sketch:type="MSShapeGroup"></path>
            <path d="M51.8088136,73.7084068 L21.8983051,73.7084068 L21.8983051,73.3722034 C21.8983051,72.1613559 22.9159322,70.7959322 24.0881356,70.4623051 L33.2725424,67.8473898 L33.2725424,64.3951864 C34.3932203,64.8061017 35.5911864,65.0508475 36.8535593,65.0508475 C38.1030508,65.0508475 39.3138983,64.8061017 40.4345763,64.3951864 L40.4345763,67.8473898 L49.6189831,70.4623051 C50.7783051,70.7959322 51.8088136,72.1613559 51.8088136,73.3722034 L51.8088136,73.7084068 L51.8088136,73.7084068 Z M28.3905085,53.1355932 C28.3905085,53.0583051 28.4033898,52.9823051 28.4033898,52.9050169 C31.3016949,53.9213559 35.2691525,53.6122034 38.2576271,51.4352542 C39.2494915,52.5172881 40.6277966,53.2270508 42.2122034,53.4576271 C42.5728814,53.5091525 42.9335593,53.5477966 43.2942373,53.5477966 C44.0027119,53.5477966 44.6725424,53.4202712 45.3037288,53.2386441 C45.2522034,58.339661 41.4908475,62.4745763 36.8535593,62.4745763 C32.1905085,62.4745763 28.3905085,58.2881356 28.3905085,53.1355932 L28.3905085,53.1355932 Z M36.8535593,43.7966102 C40.7308475,43.7966102 43.9898305,46.6949153 44.9945763,50.6250169 C44.4020339,50.8955254 43.5389831,51.0501017 42.5857627,50.9071186 C41.8,50.8040678 40.3830508,50.3918644 39.6101695,48.9491525 C39.4169492,48.5897627 39.0691525,48.3450169 38.6698305,48.279322 C38.2576271,48.2277966 37.8583051,48.3566102 37.5620339,48.6528814 C34.9857627,51.243322 31.0440678,51.3322034 28.8027119,50.3016949 C29.8847458,46.540339 33.079322,43.7966102 36.8535593,43.7966102 L36.8535593,43.7966102 Z M50.3274576,67.9890847 L43.0108475,65.9010169 L43.0108475,63.0168814 C45.9477966,60.8785763 47.88,57.2447458 47.88,53.1355932 C47.88,46.5673898 42.9335593,41.220339 36.8535593,41.220339 C30.7735593,41.220339 25.8142373,46.5673898 25.8142373,53.1355932 C25.8142373,57.2447458 27.759322,60.8785763 30.6962712,63.0168814 L30.6962712,65.9010169 L23.379661,67.9890847 C21.099661,68.6447458 19.3220339,71.0020339 19.3220339,73.3722034 L19.3220339,76.284678 L54.3850847,76.284678 L54.3850847,73.3722034 C54.3850847,71.0020339 52.5945763,68.6447458 50.3274576,67.9890847 L50.3274576,67.9890847 Z" id="Fill-1667" sketch:type="MSShapeGroup"></path>
        </g>
    </g>
</svg>