<svg width="76" height="76" viewBox="0 0 76 76" xmlns="http://www.w3.org/2000/svg">
    <desc>
        Created with Sketch.
    </desc>
    <g fill="#1B1A19">
        <path d="M73.468 73.467H2.533v-6.335c0-4.927 3.072-9.513 7.393-11.134l19.16-5.814c3.256 2.23 6.725 3.458 8.914 3.458 2.19 0 5.663-1.23 8.92-3.458l19.075 5.79c4.395 1.645 7.473 6.23 7.473 11.158v6.335zM23.295 36.403c0-.697-.566-1.267-1.266-1.267-1.842 0-2.328-2.305-2.328-3.533 0-1.217.486-3.522 2.327-3.522.603 0 1.123-.417 1.24-1.013l1.397-6.98C34.2 19.886 36.68 16.835 38 14.706c1.32 2.13 3.8 5.18 13.34 5.383l1.393 6.98c.114.595.633 1.013 1.24 1.013 1.838 0 2.32 2.306 2.32 3.523 0 1.228-.482 3.533-2.32 3.533-.696 0-1.266.57-1.266 1.267 0 4.79-3.078 8.69-6.56 11.273-.052.025-.09.077-.14.1-2.914 2.13-6.093 3.334-8.007 3.334-1.905 0-5.064-1.19-7.97-3.307-.058-.038-.11-.102-.175-.127-3.487-2.584-6.56-6.484-6.56-11.273zM21.745 7.98C25.02 4.37 30.488 2.53 38 2.53c7.487 0 12.947 1.824 16.227 5.42 3.7 4.055 3.28 9.11 3.28 9.11l-1.304 9.107c-.354-.217-.734-.393-1.165-.496l-1.42-7.093c-.125-.595-.645-1.013-1.24-1.013-9.722 0-11.385-2.786-12.486-4.623-.305-.507-.592-.988-.996-1.392-.475-.483-1.317-.483-1.792 0-.402.404-.69.885-.995 1.392-1.102 1.837-2.765 4.623-12.483 4.623-.604 0-1.125.418-1.242 1.014l-1.42 7.094c-.43.103-.81.28-1.17.495l-1.297-9.06c-.005-.05-.456-5.04 3.248-9.13zm45.06 45.586L49.35 48.27c3.04-2.722 5.485-6.383 5.84-10.765 2.394-.67 3.635-3.294 3.635-5.902 0-.9-.152-1.81-.456-2.648l1.66-11.59c.024-.254.556-6.17-3.903-11.084C52.365 2.115 46.26 0 38 0c-8.26 0-14.36 2.114-18.132 6.28-4.45 4.916-3.916 10.83-3.884 11.137l1.65 11.538c-.3.837-.466 1.748-.466 2.648 0 2.608 1.246 5.232 3.64 5.902.354 4.382 2.8 8.043 5.84 10.766L9.112 53.594C3.747 55.605 0 61.166 0 67.133V76h76v-8.868c0-5.966-3.748-11.527-9.195-13.566z"/>
        <path d="M29.133 29.465c0-.138.016-.214.01-.24.236-.102.983-.088 1.485-.088h.865c.528 0 1.32-.014 1.462.05 0 0 .034.076.034.278 0 .71.567 1.267 1.266 1.267.7 0 1.266-.556 1.266-1.267 0-.86-.252-1.545-.75-2.038-.85-.837-2.095-.837-3.3-.824h-.824c-1.204-.013-2.448-.013-3.297.824-.498.493-.75 1.177-.75 2.038 0 .71.567 1.267 1.267 1.267s1.266-.556 1.266-1.267"/>
        <path d="M41.8 30.732c.7 0 1.267-.556 1.267-1.267 0-.138.015-.214.01-.24.235-.102.99-.088 1.483-.088h.86c.533 0 1.33-.014 1.47.05 0 0 .026.076.026.278 0 .71.57 1.267 1.267 1.267.71 0 1.266-.556 1.266-1.267 0-.86-.24-1.545-.748-2.038-.85-.837-2.09-.837-3.293-.824h-.825c-1.204-.013-2.45-.013-3.3.824-.5.493-.752 1.177-.752 2.038 0 .71.567 1.267 1.267 1.267"/>
    </g>
</svg>
