<svg width="59" height="76" viewBox="0 0 59 76" xmlns="http://www.w3.org/2000/svg">
    <g fill="#0A0B09">
        <path d="M56.435 68.4c0 2.785-2.296 5.065-5.13 5.065H7.694c-2.834 0-5.13-2.28-5.13-5.065V7.6c0-2.8 2.296-5.068 5.13-5.068h43.61c2.834 0 5.13 2.267 5.13 5.068v60.8zM51.305 0H7.694C3.45 0 0 3.406 0 7.6v60.8C0 72.593 3.45 76 7.696 76h43.608C55.55 76 59 72.593 59 68.4V7.6C59 3.406 55.55 0 51.304 0z"/>
        <path d="M10.26 12.667h38.48v45.6H10.26v-45.6zM7.697 60.8h43.608V10.134H7.696V60.8z"/>
        <path d="M29.5 7.6c.705 0 1.283-.57 1.283-1.267 0-.696-.578-1.266-1.283-1.266s-1.283.57-1.283 1.266c0 .697.578 1.268 1.283 1.268"/>
        <path d="M29.5 68.4c-.705 0-1.283-.57-1.283-1.267 0-.696.578-1.266 1.283-1.266s1.283.57 1.283 1.266c0 .697-.578 1.268-1.283 1.268zm0-5.067c-2.116 0-3.848 1.7-3.848 3.8 0 2.09 1.732 3.8 3.848 3.8 2.116 0 3.848-1.71 3.848-3.8 0-2.1-1.732-3.8-3.848-3.8z"/>
    </g>
</svg>
