<?xml version="1.0" encoding="UTF-8" standalone="no"?>
<svg width="59px" height="76px" viewBox="0 0 59 76" version="1.1" xmlns="http://www.w3.org/2000/svg" xmlns:xlink="http://www.w3.org/1999/xlink" xmlns:sketch="http://www.bohemiancoding.com/sketch/ns">
    <!-- Generator: Sketch 3.1 (8751) - http://www.bohemiancoding.com/sketch -->
    <title>mobile-icon</title>
    <desc>Created with Sketch.</desc>
    <defs></defs>
    <g id="Page-1" stroke="none" stroke-width="1" fill="none" fill-rule="evenodd" sketch:type="MSPage">
        <g id="mobile-icon" sketch:type="MSLayerGroup" fill="#0A0B09">
            <path d="M56.4347826,68.4 C56.4347826,71.1854 54.138913,73.4654 51.3043478,73.4654 L7.69565217,73.4654 C4.86108696,73.4654 2.56521739,71.1854 2.56521739,68.4 L2.56521739,7.6 C2.56521739,4.7994 4.86108696,2.53206667 7.69565217,2.53206667 L51.3043478,2.53206667 C54.138913,2.53206667 56.4347826,4.7994 56.4347826,7.6 L56.4347826,68.4 L56.4347826,68.4 Z M51.3043478,0 L7.69565217,0 C3.45021739,0 0,3.40606667 0,7.6 L0,68.4 C0,72.5926667 3.45021739,76 7.69565217,76 L51.3043478,76 C55.5497826,76 59,72.5926667 59,68.4 L59,7.6 C59,3.40606667 55.5497826,0 51.3043478,0 L51.3043478,0 Z" id="Fill-4039" sketch:type="MSShapeGroup"></path>
            <path d="M10.2608696,12.6666667 L48.7391304,12.6666667 L48.7391304,58.2666667 L10.2608696,58.2666667 L10.2608696,12.6666667 Z M7.69565217,60.8012667 L51.3043478,60.8012667 L51.3043478,10.1333333 L7.69565217,10.1333333 L7.69565217,60.8012667 Z" id="Fill-4040" sketch:type="MSShapeGroup"></path>
            <path d="M29.5,7.60126667 C30.2054348,7.60126667 30.7826087,7.03 30.7826087,6.33333333 C30.7826087,5.63666667 30.2054348,5.06666667 29.5,5.06666667 C28.7945652,5.06666667 28.2173913,5.63666667 28.2173913,6.33333333 C28.2173913,7.03 28.7945652,7.60126667 29.5,7.60126667" id="Fill-4041" sketch:type="MSShapeGroup"></path>
            <path d="M29.5,68.4012667 C28.7945652,68.4012667 28.2173913,67.83 28.2173913,67.1333333 C28.2173913,66.4366667 28.7945652,65.8666667 29.5,65.8666667 C30.2054348,65.8666667 30.7826087,66.4366667 30.7826087,67.1333333 C30.7826087,67.83 30.2054348,68.4012667 29.5,68.4012667 L29.5,68.4012667 Z M29.5,63.3333333 C27.3836957,63.3333333 25.6521739,65.0319333 25.6521739,67.1333333 C25.6521739,69.2233333 27.3836957,70.9333333 29.5,70.9333333 C31.6163043,70.9333333 33.3478261,69.2233333 33.3478261,67.1333333 C33.3478261,65.0319333 31.6163043,63.3333333 29.5,63.3333333 L29.5,63.3333333 Z" id="Fill-4042" sketch:type="MSShapeGroup"></path>
        </g>
    </g>
</svg>