<svg width="76" height="76" viewBox="0 0 76 76" xmlns="http://www.w3.org/2000/svg">
    <desc>
        Created with Sketch.
    </desc>
    <g fill="#0A0B09">
        <path d="M69.287 43.015c-.507.1-.912.495-1.014 1-.1.506.127 1.026.558 1.318 2.065 1.344 2.876 3.964 1.94 6.232-.8 1.925-2.65 3.154-4.726 3.154-.355 0-.71-.038-1.064-.103-.507-.114-1.026.102-1.317.532-.28.43-.28.987.012 1.418 1.394 2.028 1.14 4.764-.595 6.51-1.697 1.7-4.535 1.953-6.51.597-.43-.292-.99-.305-1.42-.012-.43.29-.645.808-.53 1.316.505 2.405-.774 4.837-3.04 5.787-.635.254-1.293.38-1.965.38-1.735 0-3.33-.86-4.28-2.316-.28-.444-.812-.66-1.306-.56-.52.103-.913.51-1 1.015-.457 2.42-2.573 4.18-5.03 4.18-2.457 0-4.573-1.76-5.03-4.18-.087-.506-.48-.912-.987-1.014-.088-.01-.177-.023-.253-.023-.418 0-.823.215-1.064.584-1.317 2.015-3.99 2.863-6.232 1.937-2.28-.95-3.56-3.382-3.053-5.788.115-.51-.1-1.027-.53-1.317-.43-.293-1-.28-1.42.012-1.975 1.356-4.8 1.102-6.51-.596-1.735-1.748-1.99-4.484-.595-6.512.29-.43.29-.988.012-1.42-.29-.43-.81-.645-1.317-.53-.355.064-.71.1-1.064.1-2.077 0-3.927-1.228-4.725-3.153-.936-2.268-.125-4.888 1.94-6.232.43-.292.658-.812.557-1.318-.102-.505-.507-.9-1.014-1-2.42-.444-4.18-2.56-4.18-5.015 0-2.46 1.76-4.573 4.18-5.03.507-.09.912-.493 1.014-1 .1-.506-.127-1.025-.558-1.305C5.104 29.32 4.293 26.7 5.23 24.42c.8-1.91 2.65-3.154 4.726-3.154.355 0 .71.037 1.064.114.507.114 1.026-.1 1.317-.532.28-.43.28-1-.012-1.417-1.394-2.04-1.14-4.777.595-6.51 1.697-1.7 4.535-1.952 6.51-.597.42.292.99.292 1.42 0 .43-.277.645-.81.53-1.317-.505-2.407.774-4.84 3.04-5.776 2.256-.937 4.93-.077 6.246 1.938.28.432.798.66 1.317.546.507-.1.9-.495.988-1.002.457-2.42 2.573-4.18 5.03-4.18 2.457 0 4.573 1.76 5.03 4.18.087.507.48.913 1 1.002.506.1 1.025-.114 1.304-.546 1.305-2.027 3.99-2.875 6.232-1.938 2.28.937 3.56 3.37 3.053 5.776-.115.508.1 1.04.53 1.317.43.292.99.292 1.42 0 1.975-1.355 4.813-1.102 6.51.596 1.735 1.733 1.99 4.47.595 6.51-.29.417-.29.987-.012 1.418.29.43.81.646 1.317.532 2.394-.507 4.864.8 5.79 3.04.936 2.28.125 4.9-1.94 6.245-.43.28-.658.8-.557 1.304.102.52.507.91 1.014 1 2.42.457 4.18 2.57 4.18 5.03 0 2.456-1.76 4.57-4.18 5.015zM76 38c0-2.89-1.62-5.46-4.066-6.753 1.76-2.14 2.28-5.13 1.178-7.788-1.102-2.65-3.534-4.423-6.333-4.69.797-2.647.138-5.6-1.914-7.637-1.43-1.444-3.357-2.24-5.396-2.24-.773 0-1.52.112-2.242.327-.266-2.75-2.014-5.23-4.687-6.333-2.62-1.09-5.686-.57-7.79 1.165C43.448 1.61 40.89 0 38 0s-5.447 1.61-6.75 4.052c-2.104-1.735-5.17-2.255-7.79-1.165C20.785 3.99 19.037 6.47 18.77 9.22c-.722-.215-1.47-.328-2.242-.328-2.04 0-3.952.797-5.396 2.24-2.04 2.04-2.723 4.99-1.9 7.64-2.812.265-5.244 2.05-6.346 4.687-1.102 2.657-.595 5.648 1.165 7.787C1.62 32.54 0 35.11 0 38c0 2.887 1.61 5.445 4.053 6.75-1.76 2.13-2.267 5.117-1.165 7.79 1.102 2.635 3.534 4.42 6.346 4.688-.81 2.635-.14 5.6 1.9 7.637 1.444 1.445 3.357 2.243 5.396 2.243.773 0 1.52-.115 2.242-.343.266 2.762 2.027 5.23 4.687 6.333 2.608 1.09 5.686.584 7.79-1.165C32.552 74.377 35.11 76 38 76s5.447-1.623 6.75-4.067c2.104 1.75 5.17 2.254 7.79 1.165 2.674-1.102 4.422-3.57 4.688-6.333.722.228 1.47.343 2.242.343 2.04 0 3.952-.798 5.396-2.243 2.052-2.038 2.723-5.002 1.913-7.637 2.798-.267 5.23-2.053 6.332-4.688 1.102-2.673.595-5.66-1.165-7.79C74.38 43.445 76 40.887 76 38z"/>
        <path d="M40.533 22.8c3.078 0 5.067 1.99 5.067 5.067 0 .696.57 1.268 1.267 1.268.696 0 1.266-.572 1.266-1.268 0-4.472-3.128-7.6-7.6-7.6-4.47 0-7.6 3.128-7.6 7.6v7.6H26.6c-.697 0-1.267.57-1.267 1.268 0 .695.57 1.266 1.267 1.266h6.333v3.8c0 4.27-1.988 8.867-6.333 8.867-.697 0-1.267.57-1.267 1.268 0 .695.57 1.266 1.267 1.266h20.267c.696 0 1.266-.57 1.266-1.265 0-.698-.57-1.268-1.266-1.268H32.452c2.04-2.23 3.015-5.624 3.015-8.866V38H41.8c.697 0 1.267-.57 1.267-1.265 0-.698-.57-1.268-1.267-1.268h-6.333v-7.6c0-3.078 1.988-5.066 5.066-5.066"/>
    </g>
</svg>
