<svg width="76" height="76" viewBox="0 0 76 76" xmlns="http://www.w3.org/2000/svg">
    <g fill="#0A0B09">
        <path d="M38 73.465C18.443 73.465 2.533 57.555 2.533 38 2.533 18.44 18.443 2.532 38 2.532S73.467 18.442 73.467 38c0 19.556-15.91 35.465-35.467 35.465zM38 0C17.05 0 0 17.048 0 38c0 20.95 17.05 38 38 38s38-17.05 38-38C76 17.048 58.95 0 38 0z"/>
        <path d="M45.6 27.867c0 .696.57 1.268 1.267 1.268.696 0 1.266-.572 1.266-1.268 0-4.472-3.128-7.6-7.6-7.6-4.47 0-7.6 3.128-7.6 7.6v7.6H26.6c-.697 0-1.267.57-1.267 1.268 0 .695.57 1.266 1.267 1.266h6.333v3.8c0 4.27-1.988 8.867-6.333 8.867-.697 0-1.267.57-1.267 1.268 0 .695.57 1.266 1.267 1.266h20.267c.696 0 1.266-.57 1.266-1.265 0-.698-.57-1.268-1.266-1.268H32.452c2.04-2.23 3.015-5.624 3.015-8.866V38H41.8c.697 0 1.267-.57 1.267-1.265 0-.698-.57-1.268-1.267-1.268h-6.333v-7.6c0-3.078 1.988-5.066 5.066-5.066s5.067 1.99 5.067 5.067z"/>
    </g>
</svg>
