<svg width="76" height="76" viewBox="0 0 76 76" xmlns="http://www.w3.org/2000/svg">
    <g fill="#1B1A19">
        <path d="M38 4.433L48.876 15.2H38V4.433zM50.667 30.02H53.2V16.468c0-.128-.034-.255-.098-.38-.064-.255-.158-.38-.274-.508L37.63.38c-.116-.127-.254-.127-.41-.253-.152 0-.317-.127-.487-.127H1.267C.567 0 0 .633 0 1.268v65.865c0 .76.567 1.267 1.267 1.267H33.21v-2.532H2.532V2.533h32.934v13.935c0 .76.567 1.265 1.266 1.265h13.934V30.02z"/>
        <path d="M57 73.468c-9.08 0-16.467-7.348-16.467-16.468 0-8.992 7.388-16.467 16.467-16.467 9.08 0 16.467 7.475 16.467 16.467 0 9.12-7.386 16.468-16.467 16.468zM57 38c-10.477 0-19 8.613-19 19 0 10.513 8.523 19 19 19s19-8.487 19-19c0-10.387-8.523-19-19-19z"/>
        <path d="M64.886 49.85L54.372 62.642l-5.344-5.32c-.494-.505-1.296-.505-1.79 0-.495.508-.495 1.395 0 1.773l7.322 7.347 12.286-14.947c.444-.633.364-1.394-.177-1.773-.543-.505-1.34-.38-1.784.128"/>
    </g>
</svg>
