<?xml version="1.0" encoding="UTF-8" standalone="no"?>
<svg width="75px" height="75px" viewBox="0 0 75 75" version="1.1" xmlns="http://www.w3.org/2000/svg" xmlns:xlink="http://www.w3.org/1999/xlink" xmlns:sketch="http://www.bohemiancoding.com/sketch/ns">
    <!-- Generator: Sketch 3.2.2 (9983) - http://www.bohemiancoding.com/sketch -->
    <title>Fill 271</title>
    <desc>Created with Sketch.</desc>
    <defs></defs>
    <g id="Page-1" stroke="none" stroke-width="1" fill="none" fill-rule="evenodd" sketch:type="MSPage">
        <g id="Fill-272-+-Fill-276" sketch:type="MSLayerGroup" fill="#000000">
            <path d="M49.64625,58.62375 C48.59,58.62375 47.5825,58.33625 46.735,57.79875 C34.885,50.32375 24.67,40.11125 17.19375,28.26125 C15.75125,25.97375 16.26625,22.74875 18.42125,20.58625 L21.3975,17.61125 C22.18875,16.82375 23.24,16.375 24.28125,16.375 C25.145,16.375 25.93375,16.6875 26.50375,17.24875 L31.3875,22.13625 C32.00375,22.74875 32.315,23.6125 32.265,24.55 C32.21375,25.5375 31.7725,26.49875 31.025,27.24875 L29.21875,29.04875 C28.7675,29.5 28.72875,30.225 29.1275,30.72375 C33.535,36.225 38.77375,41.46125 44.27875,45.87375 C44.775,46.275 45.4925,46.23625 45.94375,45.78625 L47.75375,43.975 C49.2,42.525 51.6025,42.34875 52.86,43.6125 L57.7425,48.49875 C58.35875,49.11125 58.67125,49.96125 58.6225,50.91125 C58.57,51.9 58.13,52.84875 57.3825,53.59875 L54.40625,56.57375 C53.10625,57.87375 51.37125,58.62375 49.64625,58.62375 L49.64625,58.62375 Z M37.5,0 C16.8225,0 0,16.82375 0,37.5 C0,58.17375 16.8225,75 37.5,75 C51.125,75 56.0825,69.93625 57.84125,65.68625 C59.30875,62.14875 58.8,58.4625 57.95,56.56125 L59.15,55.36125 C60.335,54.1875 61.03375,52.64875 61.11875,51.03625 C61.20625,49.38625 60.63375,47.84875 59.51,46.72375 L54.6275,41.85 C53.585,40.8 52.16875,40.225 50.6375,40.225 C48.93875,40.225 47.2425,40.94875 45.98625,42.2 L44.97375,43.21125 C40.2175,39.31125 35.69,34.77375 31.7825,30.025 L32.79375,29.01125 C33.9775,27.82375 34.6775,26.28625 34.7625,24.68625 C34.85,23.025 34.27875,21.49875 33.155,20.37375 L28.27125,15.4875 C27.23,14.45 25.8125,13.875 24.28125,13.875 C22.5825,13.875 20.88625,14.5875 19.63,15.85 L16.6525,18.825 C13.68125,21.79875 13.01875,26.325 15.07875,29.6 C22.7525,41.7625 33.2375,52.24875 45.40125,59.92375 C46.64875,60.71 48.11625,61.12375 49.64625,61.12375 C51.95,61.12375 54.245,60.175 55.99,58.5125 C56.36125,59.98625 56.57375,62.53625 55.35375,65.13625 C53.08875,69.94875 46.915,72.49875 37.5,72.49875 C18.2,72.49875 2.5,56.79875 2.5,37.5 C2.5,18.2 18.2,2.49875 37.5,2.49875 C56.79875,2.49875 72.5,18.2 72.5,37.5 C72.5,44.6 70.3825,51.44875 66.3775,57.27375 C65.9875,57.84875 66.1325,58.62375 66.70125,59.01125 C67.27125,59.41125 68.04875,59.26125 68.44,58.69875 C72.73125,52.43625 75,45.11125 75,37.5 C75,16.82375 58.1775,0 37.5,0 L37.5,0 Z" id="Fill-271" sketch:type="MSShapeGroup"></path>
        </g>
    </g>
</svg>