<svg width="76" height="54" viewBox="0 0 76 54" xmlns="http://www.w3.org/2000/svg">
    <desc>
        Created with Sketch.
    </desc>
    <g fill="#1B1A19">
        <path d="M38 42.43c-2.095 0-3.8-1.672-3.8-3.86 0-2.054 1.705-3.856 3.8-3.856 1.045 0 1.992.515 2.68 1.16h.01c.686.77 1.11 1.67 1.11 2.697 0 2.188-1.704 3.86-3.8 3.86zm18.104-24.044L41.487 33.3c-1-.77-2.198-1.157-3.487-1.157-3.492 0-6.333 2.957-6.333 6.428 0 3.6 2.84 6.43 6.333 6.43 3.492 0 6.333-2.83 6.333-6.43 0-1.284-.39-2.44-1.055-3.47l14.618-14.913c.495-.387.495-1.287 0-1.8-.494-.516-1.296-.516-1.792 0z"/>
        <path d="M13.988 38.57H7.6c-.7 0-1.267.517-1.267 1.287 0 .772.568 1.286 1.267 1.286h6.388c.7 0 1.266-.514 1.266-1.286 0-.77-.567-1.286-1.266-1.286"/>
        <path d="M62.067 38.57c-.7 0-1.266.517-1.267 1.287 0 .772.567 1.286 1.267 1.286h6.387c.7 0 1.267-.514 1.267-1.286.002-.643-.565-1.286-1.264-1.286h-6.39"/>
        <path d="M59.63 30.038c.2.513.674.77 1.17.77.162 0 .326 0 .484-.128l5.903-2.443c.647-.257.954-1.028.686-1.67-.267-.644-1.01-1.03-1.654-.773l-5.904 2.573c-.647.256-.953 1.03-.686 1.67"/>
        <path d="M46.382 17.456c.16 0 .323.128.484.128.498 0 .97-.385 1.17-.898l2.445-5.916c.27-.643-.038-1.414-.684-1.67-.65-.26-1.387 0-1.656.64l-2.443 6.046c-.268.642.04 1.413.685 1.67"/>
        <path d="M38 15.43c.7 0 1.267-.516 1.267-1.287v-6.43c0-.77-.567-1.284-1.267-1.284s-1.267.513-1.267 1.284v6.43c0 .77.568 1.285 1.267 1.285"/>
        <path d="M27.77 9.74c-.267-.64-1.008-.9-1.654-.64-.646.256-.954 1.027-.686 1.67l2.443 5.916c.2.513.673.898 1.17.898.162 0 .325-.128.484-.128.647-.257.954-1.028.686-1.67L27.77 9.74"/>
        <path d="M17.363 15.814c-.494-.514-1.296-.514-1.79 0-.497.515-.497 1.287-.003 1.8l4.513 4.63c.247.256.572.385.896.385.323 0 .646-.13.895-.386.494-.515.495-1.286 0-1.8l-4.512-4.63"/>
        <path d="M16.52 28.367l-5.902-2.573c-.648-.256-1.387.13-1.654.772-.27.643.038 1.414.685 1.67l5.9 2.444c.16.13.324.13.484.13.498 0 .97-.26 1.17-.772.27-.642-.037-1.415-.683-1.67"/>
        <path d="M73.467 51.43H2.533V38.57c0-19.8 15.91-36 35.467-36s35.467 16.2 35.467 36v12.86zM38 0C17.047 0 0 17.357 0 38.57v14.144C0 53.486.567 54 1.267 54h73.466c.7 0 1.267-.514 1.267-1.286V38.57C76 17.358 58.953 0 38 0z"/>
    </g>
</svg>
