<?xml version="1.0" encoding="UTF-8" standalone="no"?>
<svg width="76px" height="54px" viewBox="0 0 76 54" version="1.1" xmlns="http://www.w3.org/2000/svg" xmlns:xlink="http://www.w3.org/1999/xlink" xmlns:sketch="http://www.bohemiancoding.com/sketch/ns">
    <!-- Generator: Sketch 3.1 (8751) - http://www.bohemiancoding.com/sketch -->
    <title>pro-icon</title>
    <desc>Created with Sketch.</desc>
    <defs></defs>
    <g id="Page-1" stroke="none" stroke-width="1" fill="none" fill-rule="evenodd" sketch:type="MSPage">
        <g id="pro-icon" sketch:type="MSLayerGroup" fill="#1B1A19">
            <path d="M38,42.4285714 C35.9049333,42.4285714 34.2,40.7584286 34.2,38.5714286 C34.2,36.5155714 35.9049333,34.7142857 38,34.7142857 C39.045,34.7142857 39.9924667,35.2285714 40.6802667,35.8727143 L40.6840667,35.8727143 L40.6904,35.8727143 C41.3756667,36.6428571 41.8,37.5441429 41.8,38.5714286 C41.8,40.7584286 40.0963333,42.4285714 38,42.4285714 L38,42.4285714 Z M56.1044667,18.3857143 L41.4871333,33.3 C40.4864667,32.5285714 39.2894667,32.1428571 38,32.1428571 C34.5078,32.1428571 31.6666667,35.1 31.6666667,38.5714286 C31.6666667,42.1714286 34.5078,45 38,45 C41.4922,45 44.3333333,42.1714286 44.3333333,38.5714286 C44.3333333,37.2857143 43.9419333,36.1285714 43.2782,35.1 L57.8955333,20.187 C58.3908,19.8 58.3908,18.9 57.8955333,18.3857143 C57.4015333,17.8714286 56.5997333,17.8714286 56.1044667,18.3857143 L56.1044667,18.3857143 Z" id="Fill-1043" sketch:type="MSShapeGroup"></path>
            <path d="M13.9878,38.5714286 L7.6,38.5714286 C6.9008,38.5714286 6.33333333,39.087 6.33333333,39.8571429 C6.33333333,40.6285714 6.9008,41.1428571 7.6,41.1428571 L13.9878,41.1428571 C14.687,41.1428571 15.2544667,40.6285714 15.2544667,39.8571429 C15.2544667,39.087 14.687,38.5714286 13.9878,38.5714286" id="Fill-1044" sketch:type="MSShapeGroup"></path>
            <path d="M62.0666667,38.5714286 C61.3674667,38.5714286 60.8012667,39.087 60.8,39.8571429 C60.8,40.6285714 61.3674667,41.1428571 62.0666667,41.1428571 L68.4544667,41.1428571 C69.1549333,41.1428571 69.7211333,40.6285714 69.7211333,39.8571429 C69.7224,39.2142857 69.1549333,38.5714286 68.4557333,38.5714286 L62.0666667,38.5714286" id="Fill-1045" sketch:type="MSShapeGroup"></path>
            <path d="M59.6298748,30.0384643 C59.8312748,30.5514643 60.3037415,30.8086071 60.8002748,30.8086071 C60.9624082,30.8086071 61.1258082,30.8086071 61.2841415,30.6800357 L67.1868082,28.2371786 C67.8340748,27.9800357 68.1406082,27.2086071 67.8733415,26.56575 C67.6060748,25.9228928 66.8638082,25.5384643 66.2190748,25.7943214 L60.3164082,28.3670357 C59.6691415,28.6228928 59.3626082,29.3956071 59.6298748,30.0384643" id="Fill-1046" sketch:type="MSShapeGroup"></path>
            <path d="M46.3823577,17.4556809 C46.5406911,17.4556809 46.7053577,17.5842523 46.8662244,17.5842523 C47.3640244,17.5842523 47.8352244,17.198538 48.0366244,16.685538 L50.4812911,10.7699666 C50.7498244,10.1271094 50.4420244,9.35568088 49.7960244,9.09853802 C49.1462244,8.84139516 48.4090244,9.09853802 48.1404911,9.74139516 L45.6970911,15.785538 C45.4285577,16.4283952 45.7363577,17.198538 46.3823577,17.4556809" id="Fill-1047" sketch:type="MSShapeGroup"></path>
            <path d="M38,15.4285714 C38.7004667,15.4285714 39.2666667,14.9142857 39.2666667,14.1428571 L39.2666667,7.71428571 C39.2666667,6.94285714 38.7004667,6.42857143 38,6.42857143 C37.3008,6.42857143 36.7333333,6.94285714 36.7333333,7.71428571 L36.7333333,14.1428571 C36.7333333,14.9142857 37.3008,15.4285714 38,15.4285714" id="Fill-1048" sketch:type="MSShapeGroup"></path>
            <path d="M27.7699577,9.74139516 C27.5026911,9.09853802 26.7616911,8.84139516 26.1156911,9.09853802 C25.4696911,9.35568088 25.1618911,10.1271094 25.4304244,10.7699666 L27.8725577,16.685538 C28.0739577,17.198538 28.5464244,17.5842523 29.0442244,17.5842523 C29.2050911,17.5842523 29.3684911,17.4556809 29.5268244,17.4556809 C30.1740911,17.198538 30.4806244,16.4283952 30.2133577,15.785538 L27.7699577,9.74139516" id="Fill-1049" sketch:type="MSShapeGroup"></path>
            <path d="M17.3626752,15.8142857 C16.8686752,15.3 16.0668752,15.3 15.5716085,15.8142857 C15.0763418,16.3285714 15.0763418,17.1012857 15.5703418,17.6142857 L20.0834752,22.2441429 C20.3304752,22.5 20.6547418,22.6285714 20.9790085,22.6285714 C21.3032752,22.6285714 21.6262752,22.5 21.8745418,22.2441429 C22.3685418,21.7285714 22.3698085,20.9584286 21.8758085,20.4428571 L17.3626752,15.8142857" id="Fill-1050" sketch:type="MSShapeGroup"></path>
            <path d="M16.520864,28.3670357 L10.6181973,25.7943214 C9.96966397,25.5384643 9.2311973,25.9228928 8.96393064,26.56575 C8.6953973,27.2086071 9.00193064,27.9800357 9.6491973,28.2371786 L15.5505973,30.6800357 C15.7089306,30.8086071 15.8735973,30.8086071 16.034464,30.8086071 C16.532264,30.8086071 17.003464,30.5514643 17.204864,30.0384643 C17.4733973,29.3956071 17.166864,28.6228928 16.520864,28.3670357" id="Fill-1051" sketch:type="MSShapeGroup"></path>
            <path d="M73.4666667,51.4285714 L2.53333333,51.4285714 L2.53333333,38.5714286 C2.53333333,18.7714286 18.4439333,2.57142857 38,2.57142857 C57.5573333,2.57142857 73.4666667,18.7714286 73.4666667,38.5714286 L73.4666667,51.4285714 L73.4666667,51.4285714 Z M38,0 C17.0468,0 0,17.3571429 0,38.5714286 L0,52.7142857 C0,53.4857143 0.567466667,54 1.26666667,54 L74.7333333,54 C75.4338,54 76,53.4857143 76,52.7142857 L76,38.5714286 C76,17.3571429 58.9532,0 38,0 L38,0 Z" id="Fill-1052" sketch:type="MSShapeGroup"></path>
        </g>
    </g>
</svg>