<svg width="88" height="76" viewBox="0 0 88 76" xmlns="http://www.w3.org/2000/svg">
    <desc>
        Created with Sketch.
    </desc>
    <g fill="#0A0B09">
        <path d="M17.6 43.845H44v17.538H17.6V43.845zm27.867-2.922H16.133c-.806 0-1.466.653-1.466 1.46v20.463c0 .805.66 1.46 1.466 1.46h29.334c.806 0 1.466-.655 1.466-1.46V42.383c0-.807-.66-1.46-1.466-1.46z"/>
        <path d="M85.067 19c0 5.26-4.987 10.23-10.267 10.23-2.42 0-5.5-.672-7.333-2.137v-9.555h17.6V19zm-8.8 54.077h-2.934V42.385c0-.807-.66-1.46-1.466-1.46h-17.6c-.807 0-1.467.653-1.467 1.46v30.692H11.733V32.155c2.582 0 7.07-.644 9.9-2.297 2.376 3.325 5.134 5.22 10.634 5.22 4.312 0 7.553-1.173 10.296-3.77 2.8 2.41 6.966 3.77 11.704 3.77 5.324 0 9.27-1.704 12.026-5.2 2.538 1.66 6.014 2.277 8.507 2.277.5 0 .983-.04 1.467-.102v41.024zm-20.534-29.23H70.4v29.23H55.733v-29.23zM2.933 19V17.54h17.6v9.525c-1.79 1.29-5.866 2.168-8.8 2.168-5.514 0-8.8-5.2-8.8-10.23zm8.17-16.077h13.332l-3.52 11.694H4.063l7.04-11.694zm49.412 0l3.52 11.694H44V2.923h16.515zm-19.448 0v11.694H23.965l3.52-11.694h13.582zm-17.6 14.615h17.6v11.107c-2.318 2.443-4.987 3.51-8.8 3.51-4.342 0-6.38-1.115-8.8-4.833v-9.784zm41.066 9.768c-2.244 3.337-5.426 4.85-10.266 4.85-4.342 0-8.038-1.29-10.267-3.532V17.538h20.533v9.768zm19.404-12.69H67.085l-3.52-11.693h13.332l7.04 11.694zm3.96.955c-.014-.04-.03-.08-.058-.122-.016-.04-.03-.083-.045-.124L78.995.71C78.73.27 78.247 0 77.733 0H10.267c-.514 0-.998.27-1.262.71l-8.8 14.614-.044.124c-.028.043-.043.08-.057.123-.06.163-.103.332-.103.5v2.931c0 6.236 3.68 11.312 8.8 12.74v42.798c0 .807.66 1.463 1.467 1.463h67.466c.807 0 1.467-.655 1.467-1.462V31.29C84.157 29.354 88 24.37 88 19v-2.929c0-.168-.044-.337-.103-.5z"/>
        <path d="M66 58.462c-.807 0-1.467.653-1.467 1.46 0 .806.66 1.46 1.467 1.46s1.467-.654 1.467-1.46c0-.807-.66-1.46-1.467-1.46"/>
    </g>
</svg>
