<?xml version="1.0" encoding="UTF-8" standalone="no"?>
<svg width="25px" height="25px" viewBox="0 0 25 25" version="1.1" xmlns="http://www.w3.org/2000/svg" xmlns:xlink="http://www.w3.org/1999/xlink" xmlns:sketch="http://www.bohemiancoding.com/sketch/ns">
    <!-- Generator: Sketch 3.1 (8751) - http://www.bohemiancoding.com/sketch -->
    <title>tick-xsmall-icon</title>
    <desc>Created with Sketch.</desc>
    <defs></defs>
    <g id="Page-1" stroke="none" stroke-width="1" fill="none" fill-rule="evenodd" sketch:type="MSPage">
        <g id="tick-xsmall-icon" sketch:type="MSLayerGroup" fill="#1B1A19">
            <path d="M9.375,16.6629857 C9.24166667,16.6629857 9.10833333,16.6109024 9.00729167,16.5171524 L6.403125,13.9129857 C6.19895833,13.7046524 6.19895833,13.371319 6.403125,13.1734024 C6.60625,12.965069 6.93541667,12.965069 7.13958333,13.1734024 L9.3875,15.4234024 L16.8322917,8.4754857 C17.0427083,8.27756904 17.371875,8.2879857 17.56875,8.49631904 C17.7645833,8.70465237 17.753125,9.0379857 17.5427083,9.23590237 L9.73020833,16.5286107 C9.63020833,16.621319 9.503125,16.6629857 9.375,16.6629857" id="Fill-2214" sketch:type="MSShapeGroup"></path>
            <path d="M12.5,1.04166667 C6.18229167,1.04166667 1.04166667,6.1875 1.04166667,12.5 C1.04166667,18.8229167 6.18229167,23.9583333 12.5,23.9583333 C18.81875,23.9583333 23.9583333,18.8229167 23.9583333,12.5 C23.9583333,6.1875 18.81875,1.04166667 12.5,1.04166667 L12.5,1.04166667 Z M12.5,25 C5.60729167,25 0,19.3958333 0,12.5 C0,5.60416667 5.60729167,0 12.5,0 C19.3927083,0 25,5.60416667 25,12.5 C25,19.3958333 19.3927083,25 12.5,25 L12.5,25 Z" id="Fill-2215" sketch:type="MSShapeGroup"></path>
        </g>
    </g>
</svg>