<svg width="76" height="76" viewBox="0 0 76 76" xmlns="http://www.w3.org/2000/svg">
    <g fill="#1B1A19">
        <path d="M28.623 49.907c.247.253.57.38.896.38.31 0 .62-.127.863-.38l23.956-22.42c.51-.38.537-1.266.06-1.774-.476-.506-1.28-.506-1.79 0L29.55 47.247l-7.12-7.092c-.496-.508-1.298-.508-1.792 0-.495.38-.495 1.266 0 1.772l7.985 7.98"/>
        <path d="M2.533 2.533h70.934v70.934H2.533V2.533zM74.733 0H1.267C.567 0 0 .633 0 1.267v73.466C0 75.493.567 76 1.267 76h73.466c.7 0 1.267-.507 1.267-1.267V1.267C76 .633 75.433 0 74.733 0z"/>
    </g>
</svg>
