<svg width="76" height="76" viewBox="0 0 76 76" xmlns="http://www.w3.org/2000/svg">
    <g fill="#1B1A19">
        <path d="M38 4.433L48.876 15.2H38V4.433zM50.667 30.02H53.2V16.468c0-.128-.034-.255-.098-.38-.064-.255-.158-.38-.274-.508L37.63.38c-.115-.127-.254-.127-.41-.253-.152 0-.317-.127-.487-.127H1.267C.567 0 0 .633 0 1.268v65.865c0 .76.567 1.267 1.267 1.267h31.94v-2.532H2.534V2.533h32.934v13.935c0 .76.567 1.265 1.266 1.265h13.934V30.02z"/>
        <path d="M69.242 68.4l-2.377-1.392c-.466-.255-1.05-.128-1.46.125-1.153 1.014-2.585 1.9-4.136 2.407-.498.253-.827.635-.827 1.268v2.66h-7.05v-2.66c0-.633-.33-1.015-.824-1.268-1.578-.507-3.062-1.393-4.18-2.407-.406-.253-.99-.38-1.454-.125L44.523 68.4l-3.526-6.08 2.388-1.393c.463-.252.708-.76.61-1.268-.152-.885-.227-1.647-.227-2.407s.075-1.645.23-2.406c.096-.507-.15-1.14-.61-1.394L41 52.06l3.53-6.08 2.403 1.395c.464.252 1.046.252 1.455-.128 1.12-1.014 2.602-1.772 4.178-2.407.496-.127.826-.632.826-1.14v-3.167h7.05V43.7c0 .508.33 1.013.826 1.14 1.55.635 2.98 1.393 4.136 2.407.41.38.998.38 1.46.128l2.367-1.395 3.523 6.08-2.39 1.393c-.464.255-.708.887-.612 1.394.155.76.23 1.646.23 2.406 0 .76-.074 1.522-.23 2.406-.095.508.15 1.015.614 1.267l2.394 1.393-3.52 6.08zm5.884-7.6l-2.74-1.647c.088-.633.13-1.265.13-1.9 0-.633-.042-1.265-.13-2.026l2.734-1.52c.606-.38.813-1.14.465-1.774L70.793 43.7c-.167-.38-.446-.507-.77-.632-.326-.128-.672 0-.963.125l-2.716 1.52c-1.01-.76-2.15-1.393-3.368-1.9v-3.545c0-.635-.566-1.268-1.267-1.268h-9.583c-.7 0-1.267.633-1.267 1.268v3.545c-1.014.38-2.233 1.014-3.41 1.9l-2.75-1.52c-.607-.38-1.38-.125-1.728.507l-4.797 8.233c-.35.635-.142 1.394.462 1.775l2.73 1.52c-.088.76-.132 1.392-.132 2.025 0 .635.043 1.267.13 1.9L38.632 60.8c-.605.253-.813 1.013-.463 1.647l4.79 8.36c.35.633 1.123.76 1.728.38l2.76-1.52c1.178.886 2.397 1.52 3.412 1.9v3.166c0 .76.568 1.267 1.267 1.267h9.582c.7 0 1.266-.507 1.266-1.267v-3.165c1.22-.51 2.36-1.14 3.37-1.9l2.725 1.52c.29.252.637.252.963.125.324 0 .6-.254.77-.505l4.787-8.36c.35-.635.14-1.395-.464-1.648z"/>
        <path d="M57 62.067c-2.793 0-5.067-2.28-5.067-5.067 0-2.785 2.274-5.065 5.067-5.065 2.794 0 5.067 2.28 5.067 5.065 0 2.787-2.273 5.067-5.067 5.067zM57 49.4c-4.19 0-7.6 3.42-7.6 7.6s3.41 7.6 7.6 7.6c4.19 0 7.6-3.42 7.6-7.6s-3.41-7.6-7.6-7.6z"/>
    </g>
</svg>
