<svg xmlns="http://www.w3.org/2000/svg" width="134" height="13.98" viewBox="-8 9.52 134 13.98" enable-background="new -8 9.52 134 13.98"><g fill="#18252E"><path d="M-.895 23.5c-4.209 0-7.105-2.955-7.105-6.951v-.039c0-3.844 2.993-6.99 7.086-6.99 2.433 0 3.9.656 5.309 1.854l-1.873 2.26c-1.042-.87-1.97-1.372-3.534-1.372-2.163 0-3.881 1.912-3.881 4.21v.039c0 2.471 1.699 4.287 4.094 4.287 1.081 0 2.046-.271 2.8-.811v-1.934h-2.993v-2.566h5.87v5.869c-1.389 1.177-3.301 2.144-5.773 2.144zM14.028 23.5c-4.171 0-7.164-3.109-7.164-6.951v-.039c0-3.844 3.031-6.99 7.203-6.99 4.17 0 7.163 3.109 7.163 6.951v.039c0 3.842-3.031 6.99-7.202 6.99zm4.094-6.99c0-2.317-1.699-4.249-4.093-4.249s-4.055 1.893-4.055 4.21v.039c0 2.316 1.699 4.246 4.094 4.246 2.394 0 4.055-1.893 4.055-4.207l-.001-.039zM29.799 23.5c-3.9 0-6.778-3.07-6.778-6.971 0-3.863 2.858-7.01 6.835-7.01 2.453 0 3.919.869 5.271 2.143l-1.043 1.119c-1.139-1.08-2.413-1.852-4.248-1.852-2.993 0-5.233 2.412-5.233 5.561 0 3.146 2.26 5.6 5.233 5.6 1.854 0 3.07-.713 4.364-1.949l1.004.984c-1.409 1.428-2.953 2.375-5.405 2.375zM50.185 23.268h-1.641l-1.583-3.572h-7.356l-1.603 3.572h-1.564l6.16-13.613h1.428l6.159 13.613zm-6.893-11.836l-3.09 6.893h6.16l-3.07-6.893zM61.689 23.268l-3.92-5.254h-3.862v5.254h-1.525v-13.516h5.812c2.974 0 4.884 1.603 4.884 4.035 0 2.26-1.544 3.572-3.667 3.957l4.151 5.523h-1.873zm-3.612-12.108h-4.17v5.484h4.151c2.026 0 3.476-1.043 3.476-2.8 0-1.679-1.275-2.684-3.457-2.684zM70.721 23.268h-4.69v-13.516h4.69c4.248 0 7.185 2.914 7.185 6.738-.002 3.822-2.937 6.778-7.185 6.778zm0-12.108h-3.165v10.697h3.165c3.417 0 5.601-2.316 5.601-5.328 0-3.013-2.183-5.369-5.601-5.369zM80.779 9.752h1.523v12.105h7.607v1.41h-9.131v-13.515zM101.938 11.141h-8.244v4.615h7.375v1.391h-7.375v4.73h8.34v1.391h-9.865v-13.516h9.77v1.389zM109.611 15.775c3.012.656 4.402 1.758 4.402 3.844 0 2.336-1.93 3.84-4.615 3.84-2.143 0-3.9-.713-5.521-2.162l.945-1.119c1.41 1.273 2.762 1.91 4.635 1.91 1.814 0 3.012-.945 3.012-2.316 0-1.273-.676-1.988-3.514-2.586-3.109-.676-4.537-1.682-4.537-3.92 0-2.164 1.873-3.709 4.441-3.709 1.971 0 3.379.561 4.75 1.661l-.889 1.177c-1.256-1.022-2.51-1.467-3.9-1.467-1.758 0-2.877.965-2.877 2.201 0 1.295.696 2.01 3.668 2.646zM121.598 15.775c3.012.656 4.402 1.758 4.402 3.844 0 2.336-1.932 3.84-4.615 3.84-2.143 0-3.898-.713-5.521-2.162l.945-1.119c1.41 1.273 2.762 1.91 4.635 1.91 1.816 0 3.012-.945 3.012-2.316 0-1.273-.674-1.988-3.514-2.586-3.109-.676-4.537-1.682-4.537-3.92 0-2.164 1.873-3.709 4.441-3.709 1.971 0 3.379.561 4.75 1.661l-.887 1.177c-1.256-1.022-2.512-1.467-3.902-1.467-1.758 0-2.877.965-2.877 2.201 0 1.295.695 2.01 3.668 2.646z"/></g></svg>