<?xml version="1.0" encoding="utf-8"?>
<!-- Generator: Adobe Illustrator 16.0.0, SVG Export Plug-In . SVG Version: 6.00 Build 0)  -->
<!DOCTYPE svg PUBLIC "-//W3C//DTD SVG 1.1//EN" "http://www.w3.org/Graphics/SVG/1.1/DTD/svg11.dtd">
<svg version="1.1" id="Layer_1" xmlns="http://www.w3.org/2000/svg" xmlns:xlink="http://www.w3.org/1999/xlink" x="0px" y="0px"
	 width="134px" height="13.98px" viewBox="-8 9.52 134 13.98" enable-background="new -8 9.52 134 13.98" xml:space="preserve">
<g>
	<path fill="#18252E" d="M-0.895,23.5C-5.104,23.5-8,20.545-8,16.549V16.51c0-3.844,2.993-6.99,7.086-6.99
		c2.433,0,3.9,0.656,5.309,1.854l-1.873,2.26c-1.042-0.87-1.97-1.372-3.534-1.372c-2.163,0-3.881,1.912-3.881,4.21v0.039
		c0,2.471,1.699,4.287,4.094,4.287c1.081,0,2.046-0.271,2.8-0.811v-1.934h-2.993v-2.566h5.87v5.869
		C3.489,22.533,1.577,23.5-0.895,23.5z"/>
	<path fill="#18252E" d="M14.028,23.5c-4.171,0-7.164-3.109-7.164-6.951V16.51c0-3.844,3.031-6.99,7.203-6.99
		c4.17,0,7.163,3.109,7.163,6.951v0.039C21.23,20.352,18.199,23.5,14.028,23.5z M18.122,16.51c0-2.317-1.699-4.249-4.093-4.249
		s-4.055,1.893-4.055,4.21v0.039c0,2.316,1.699,4.246,4.094,4.246c2.394,0,4.055-1.893,4.055-4.207L18.122,16.51L18.122,16.51z"/>
	<path fill="#18252E" d="M29.799,23.5c-3.9,0-6.778-3.07-6.778-6.971c0-3.863,2.858-7.01,6.835-7.01
		c2.453,0,3.919,0.869,5.271,2.143l-1.043,1.119c-1.139-1.08-2.413-1.852-4.248-1.852c-2.993,0-5.233,2.412-5.233,5.561
		c0,3.146,2.26,5.6,5.233,5.6c1.854,0,3.07-0.713,4.364-1.949l1.004,0.984C33.795,22.553,32.251,23.5,29.799,23.5z"/>
	<path fill="#18252E" d="M50.185,23.268h-1.641l-1.583-3.572h-7.356l-1.603,3.572h-1.564l6.16-13.613h1.428L50.185,23.268z
		 M43.292,11.432l-3.09,6.893h6.16L43.292,11.432z"/>
	<path fill="#18252E" d="M61.689,23.268l-3.92-5.254h-3.862v5.254h-1.525V9.752h5.812c2.974,0,4.884,1.603,4.884,4.035
		c0,2.26-1.544,3.572-3.667,3.957l4.151,5.523H61.689z M58.077,11.16h-4.17v5.484h4.151c2.026,0,3.476-1.043,3.476-2.8
		C61.534,12.165,60.259,11.16,58.077,11.16z"/>
	<path fill="#18252E" d="M70.721,23.268h-4.69V9.752h4.69c4.248,0,7.185,2.914,7.185,6.738
		C77.904,20.312,74.969,23.268,70.721,23.268z M70.721,11.16h-3.165v10.697h3.165c3.417,0,5.601-2.316,5.601-5.328
		C76.322,13.516,74.139,11.16,70.721,11.16z"/>
	<path fill="#18252E" d="M80.779,9.752h1.523v12.105h7.607v1.41h-9.131V9.752z"/>
	<path fill="#18252E" d="M101.938,11.141h-8.244v4.615h7.375v1.391h-7.375v4.73h8.34v1.391h-9.865V9.752h9.77V11.141z"/>
	<path fill="#18252E" d="M109.611,15.775c3.012,0.656,4.402,1.758,4.402,3.844c0,2.336-1.93,3.84-4.615,3.84
		c-2.143,0-3.9-0.713-5.521-2.162l0.945-1.119c1.41,1.273,2.762,1.91,4.635,1.91c1.814,0,3.012-0.945,3.012-2.316
		c0-1.273-0.676-1.988-3.514-2.586c-3.109-0.676-4.537-1.682-4.537-3.92c0-2.164,1.873-3.709,4.441-3.709
		c1.971,0,3.379,0.561,4.75,1.661l-0.889,1.177c-1.256-1.022-2.51-1.467-3.9-1.467c-1.758,0-2.877,0.965-2.877,2.201
		C105.943,14.424,106.639,15.139,109.611,15.775z"/>
	<path fill="#18252E" d="M121.598,15.775c3.012,0.656,4.402,1.758,4.402,3.844c0,2.336-1.932,3.84-4.615,3.84
		c-2.143,0-3.898-0.713-5.521-2.162l0.945-1.119c1.41,1.273,2.762,1.91,4.635,1.91c1.816,0,3.012-0.945,3.012-2.316
		c0-1.273-0.674-1.988-3.514-2.586c-3.109-0.676-4.537-1.682-4.537-3.92c0-2.164,1.873-3.709,4.441-3.709
		c1.971,0,3.379,0.561,4.75,1.661l-0.887,1.177c-1.256-1.022-2.512-1.467-3.902-1.467c-1.758,0-2.877,0.965-2.877,2.201
		C117.93,14.424,118.625,15.139,121.598,15.775z"/>
</g>
</svg>
